/* XPM */
static char *dummy[]={
"48 24 76 2",
".e c None",
"Qt c None",
".y c #ffff00",
".J c #ffff00",
".k c #ffff2a",
".r c #ffff24",
".# c #ffff20",
".u c #edff24",
".M c #f2ff28",
".7 c #f3ff24",
".S c #f3ff23",
".P c #f5ff29",
".4 c #f5ff27",
".Z c #f6ff23",
".d c #f6ff22",
".H c #f2ff27",
".x c #f5fa23",
"#g c #f1fa26",
".9 c #f1fa25",
".I c #f3fb24",
".l c #f4fb24",
".a c #f5fc23",
".0 c #f1fc25",
".f c #f2fc24",
".3 c #f2fc24",
".w c #f3fc23",
".c c #f4fc25",
".D c #f2fc25",
".L c #f2fc24",
".T c #f2fc24",
".v c #f3fd25",
".b c #f3fd25",
"#. c #f3fd24",
"#b c #f3fd23",
".5 c #f4fd25",
".W c #f4fd23",
"## c #f2fd25",
".O c #f2fd25",
".V c #f2fd24",
".K c #f2fd24",
".R c #f3fd25",
"#c c #f4fb24",
"#h c #f2fb24",
"#f c #f2fb24",
".Y c #f3fb23",
".j c #f3fc24",
".G c #f3fc24",
"#j c #f4fc24",
".o c #f2fc24",
".q c #f3fc24",
".B c #f3fc25",
"#i c #f3fc23",
".1 c #f2fc24",
"#a c #f3fc24",
".A c #f3fc23",
".p c #f3fc24",
".z c #f3fc24",
".2 c #f3fc24",
".t c #f3fd24",
"#e c #f3fd25",
".6 c #f3fd24",
".C c #f3fd24",
".F c #f3fc24",
".s c #f2fc24",
".n c #f3fc24",
".X c #f3fc24",
".g c #f3fc24",
".Q c #f3fc24",
".U c #f3fc24",
"#d c #f3fc24",
".N c #f4fc24",
".8 c #f3fc24",
".E c #f3fc24",
".m c #f3fc24",
".i c #f3fc24",
".h c #f3fc24",
"QtQtQtQtQtQtQtQtQtQtQtQtQtQtQtQtQtQtQtQtQtQtQtQtQtQtQtQtQtQtQtQtQtQtQtQtQtQtQtQtQtQtQtQtQtQtQtQt",
"QtQtQtQtQtQtQtQt.#.a.b.c.d.e.e.eQtQtQtQtQtQtQtQtQtQtQtQtQtQtQtQtQtQtQtQtQtQtQtQtQtQtQtQtQtQtQtQt",
"QtQtQtQt.e.e.e.f.g.h.h.h.i.j.k.eQtQtQtQtQtQtQtQtQtQtQtQtQtQtQtQtQtQtQtQtQtQtQtQtQtQtQtQtQtQtQtQt",
"QtQtQtQt.e.e.l.m.h.n.o.p.h.h.q.eQtQtQtQtQtQtQtQtQtQtQtQtQtQtQtQtQtQtQtQtQtQtQtQtQtQtQtQtQtQtQtQt",
"QtQtQtQt.e.r.s.h.t.u.e.e.v.h.h.aQtQtQtQtQtQtQtQtQtQtQtQtQtQtQtQtQtQtQtQtQtQtQtQtQtQtQtQtQtQtQtQt",
"QtQtQtQt.e.w.h.h.x.e.e.e.y.z.h.AQtQtQtQtQtQtQtQtQtQtQtQtQtQtQtQtQtQtQtQtQtQtQtQtQtQtQtQtQtQtQtQt",
"QtQtQtQt.e.B.h.CQtQtQtQt.e.D.h.E.u.e.e.eQtQtQtQtQtQtQtQtQtQtQtQtQtQtQtQtQtQtQtQtQtQtQtQtQtQtQtQt",
"QtQtQtQt.e.F.h.GQtQtQtQt.e.H.h.h.I.e.e.eQtQtQtQtQtQtQtQtQtQtQtQtQtQtQtQtQtQtQtQtQtQtQtQtQtQtQtQt",
"QtQtQtQt.J.m.h.KQtQtQtQt.e.r.h.h.L.e.e.eQtQtQtQtQtQtQtQtQtQtQtQtQtQtQtQtQtQtQtQtQtQtQtQtQtQtQtQt",
"QtQtQtQt.M.h.h.vQtQtQtQt.e.e.N.h.O.e.e.eQtQtQtQtQtQtQtQtQtQtQtQtQtQtQtQtQtQtQtQtQtQtQtQtQtQtQtQt",
"QtQtQtQt.P.h.h.DQtQtQtQt.e.e.Q.h.R.e.e.eQtQtQtQtQtQtQtQtQtQtQtQtQtQtQtQtQtQtQtQtQtQtQtQtQtQtQtQt",
"QtQtQtQt.S.h.h.TQtQtQtQt.e.e.U.h.V.e.e.eQtQtQtQtQtQtQtQtQtQtQtQtQtQtQtQtQtQtQtQtQtQtQtQtQtQtQtQt",
"QtQtQtQt.r.h.h.WQtQtQtQt.e.J.i.h.b.e.e.eQtQtQtQtQtQtQtQtQtQtQtQtQtQtQtQtQtQtQtQtQtQtQtQtQtQtQtQt",
"QtQtQtQt.e.X.h.YQtQtQtQt.e.Z.h.h.0.e.e.eQtQtQtQtQtQtQtQtQtQtQtQtQtQtQtQtQtQtQtQtQtQtQtQtQtQtQtQt",
"QtQtQtQt.e.1.h.2QtQtQtQt.e.3.h.h.4.e.e.eQtQtQtQtQtQtQtQtQtQtQtQtQtQtQtQtQtQtQtQtQtQtQtQtQtQtQtQt",
"QtQtQtQt.e.5.h.E.P.e.e.e.e.o.h.6QtQtQtQtQtQtQtQtQtQtQtQtQtQtQtQtQtQtQtQtQtQtQtQtQtQtQtQtQtQtQtQt",
"QtQtQtQt.e.7.8.h.q.y.e.e.9.E.h#.QtQtQtQtQtQtQtQtQtQtQtQtQtQtQtQtQtQtQtQtQtQtQtQtQtQtQtQtQtQtQtQt",
"QtQtQtQt.e.e##.h.h#a#b#c#d.h#e.kQtQtQtQtQtQtQtQtQtQtQtQtQtQtQtQtQtQtQtQtQtQtQtQtQtQtQtQtQtQtQtQt",
"QtQtQtQt.e.e.y#f.h.h.h.h.h.C.d.eQtQtQtQtQtQtQtQtQtQtQtQtQtQtQtQtQtQtQtQtQtQtQtQtQtQtQtQtQtQtQtQt",
"QtQtQtQtQtQtQtQt#g#h#i#j.D.r.e.eQtQtQtQtQtQtQtQtQtQtQtQtQtQtQtQtQtQtQtQtQtQtQtQtQtQtQtQtQtQtQtQt",
"QtQtQtQtQtQtQtQtQtQtQtQtQtQtQtQtQtQtQtQtQtQtQtQtQtQtQtQtQtQtQtQtQtQtQtQtQtQtQtQtQtQtQtQtQtQtQtQt",
"QtQtQtQtQtQtQtQtQtQtQtQtQtQtQtQtQtQtQtQtQtQtQtQtQtQtQtQtQtQtQtQtQtQtQtQtQtQtQtQtQtQtQtQtQtQtQtQt",
"QtQtQtQtQtQtQtQtQtQtQtQtQtQtQtQtQtQtQtQtQtQtQtQtQtQtQtQtQtQtQtQtQtQtQtQtQtQtQtQtQtQtQtQtQtQtQtQt",
"QtQtQtQtQtQtQtQtQtQtQtQtQtQtQtQtQtQtQtQtQtQtQtQtQtQtQtQtQtQtQtQtQtQtQtQtQtQtQtQtQtQtQtQtQtQtQtQt"};
