/* XPM */
static char *dummy[]={
"48 24 25 1",
"# c None",
". c None",
"f c #ffff00",
"a c #ffff24",
"b c #ffff20",
"t c #edff24",
"q c #f0ff1e",
"s c #f5ff29",
"u c #f0ff25",
"i c #f2fb24",
"w c #f4fb25",
"v c #f2fc25",
"c c #f3fd25",
"r c #f4fd24",
"p c #f3fb24",
"g c #f4fb24",
"n c #f4fc24",
"k c #f3fc24",
"m c #f3fc24",
"j c #f3fc24",
"e c #f3fc24",
"l c #f3fc24",
"o c #f3fc24",
"d c #f3fc24",
"h c #f3fc24",
"................................................",
"........###ab###................................",
"........##cde###................................",
"........fghhe###................................",
"....###ijhhhe###................................",
"....##khhlmhe###................................",
"....##nopqrhe###................................",
"....##st##rhe###................................",
"........##rhe###................................",
"........##rhe###................................",
"........##rhe###................................",
"........##rhe###................................",
"........##rhe###................................",
"........##rhe###................................",
"........##rhe###................................",
"........##rhe###................................",
"........##rhe###................................",
"........##rhe###................................",
"........##rhe###................................",
"........##uvw###................................",
"................................................",
"................................................",
"................................................",
"................................................"};
