/* XPM */
static char *dummy[]={
"48 24 62 1",
"# c None",
". c None",
"y c #ffff00",
"m c #ffff00",
"g c #ffff40",
"a c #ffff2a",
"W c #ffff24",
"f c #ebff27",
"w c #f2ff28",
"z c #f4ff21",
"E c #f3ff24",
"B c #f3f924",
"R c #f3f923",
"5 c #f4fa26",
"J c #f5fa22",
"Y c #f1fa26",
"X c #f2fb22",
"b c #f3fb24",
"7 c #f4fb25",
"e c #f4fb23",
"6 c #f2fc25",
"A c #f2fc24",
"C c #f2fc24",
"D c #f3fc24",
"v c #f3fc24",
"P c #f4fc25",
"t c #f2fc25",
"d c #f2fc23",
"c c #f3fd25",
"N c #f3fd23",
"L c #f4fd25",
"K c #f4fd24",
"h c #f4fd23",
"l c #f3fd25",
"s c #f3fd24",
"H c #f3fb24",
"Z c #f4fb24",
"M c #f3fb24",
"O c #f3fc24",
"Q c #f3fc23",
"2 c #f3fc25",
"T c #f4fc24",
"3 c #f2fc24",
"1 c #f3fc24",
"n c #f3fc24",
"p c #f4fc24",
"q c #f3fc24",
"U c #f3fc24",
"G c #f3fc24",
"F c #f3fc24",
"x c #f3fd24",
"V c #f3fd24",
"o c #f3fc24",
"4 c #f3fc24",
"i c #f3fc24",
"u c #f3fc24",
"r c #f4fc24",
"k c #f3fc24",
"S c #f3fc24",
"I c #f3fc24",
"0 c #f3fc24",
"j c #f3fc24",
"................................................",
"....###abcdef###................................",
"....#ghijjjjklm#................................",
"....#njjopqrjjs#................................",
"....#tuvm##wxjkf................................",
"....#yz#....Ajjb................................",
"............BjjC................................",
"............DjjE................................",
"........###mFjGy................................",
"........###HjIJ#................................",
"........##KjjL##................................",
"........#LjjMy##................................",
"........NjjOm###................................",
"....###PjjQy....................................",
"....##RSjTy#....................................",
"....#yUjVW##....................................",
"....#XjjY###....................................",
"....#Zj011111112................................",
"....#3jjjjjjjjj4................................",
"....#56666666667................................",
"................................................",
"................................................",
"................................................",
"................................................"};
