/* XPM */
static char *dummy[]={
"48 24 73 2",
".# c None",
"Qt c None",
".y c #ffff00",
".s c #ffff00",
"#a c #ffff33",
".M c #ffff24",
".f c #ffff20",
".S c #edff24",
".N c #eeff22",
".a c #f1ff2a",
".u c #f2ff26",
".0 c #f3ff24",
".A c #f5ff29",
"## c #f5ff27",
".v c #f6ff23",
".g c #f2ff27",
"#g c #f3f924",
".O c #f5fa24",
".T c #f5fa22",
".e c #f3fb23",
"#b c #f4fb22",
".J c #f4fb25",
".F c #f4fb24",
".b c #f2fc25",
".z c #f2fc23",
".1 c #f4fc25",
".r c #f4fc25",
".l c #f4fc24",
".d c #f2fc24",
".c c #f3fd25",
".6 c #f3fd24",
".5 c #f4fd24",
"#f c #f2fd24",
".t c #f2fd24",
".7 c #f3fd23",
".U c #f3fd24",
".2 c #f3fb24",
".P c #f3fb24",
".D c #f3fb23",
".B c #f3fc24",
".4 c #f3fc24",
".X c #f3fc23",
".o c #f4fc24",
"#e c #f2fc24",
"#c c #f2fc24",
".L c #f3fc24",
".h c #f3fc25",
"#d c #f3fc24",
".V c #f3fc24",
".p c #f3fc24",
"#. c #f4fc23",
".n c #f3fc24",
".8 c #f3fc24",
".G c #f3fc24",
".Y c #f3fc25",
".Z c #f2fc24",
".W c #f3fd24",
".9 c #f3fd24",
".K c #f3fb23",
".x c #f3fb24",
".R c #f3fc24",
".C c #f3fc24",
".3 c #f4fc24",
".w c #f2fc24",
".I c #f3fc24",
".H c #f3fc24",
".k c #f3fc24",
".Q c #f4fc24",
".q c #f3fc24",
".m c #f3fc24",
".E c #f3fc24",
".i c #f3fc24",
".j c #f3fc24",
"QtQtQtQtQtQtQtQtQtQtQtQtQtQtQtQtQtQtQtQtQtQtQtQtQtQtQtQtQtQtQtQtQtQtQtQtQtQtQtQtQtQtQtQtQtQtQtQt",
"QtQtQtQt.#.#.#.a.b.c.d.e.f.#.#.#QtQtQtQtQtQtQtQtQtQtQtQtQtQtQtQtQtQtQtQtQtQtQtQtQtQtQtQtQtQtQtQt",
"QtQtQtQt.#.g.h.i.j.j.j.j.k.d.#.#QtQtQtQtQtQtQtQtQtQtQtQtQtQtQtQtQtQtQtQtQtQtQtQtQtQtQtQtQtQtQtQt",
"QtQtQtQt.#.l.j.m.n.o.p.q.j.j.r.#QtQtQtQtQtQtQtQtQtQtQtQtQtQtQtQtQtQtQtQtQtQtQtQtQtQtQtQtQtQtQtQt",
"QtQtQtQt.#.s.t.u.#.#.#.v.w.j.x.yQtQtQtQtQtQtQtQtQtQtQtQtQtQtQtQtQtQtQtQtQtQtQtQtQtQtQtQtQtQtQtQt",
"QtQtQtQtQtQtQtQtQtQtQtQt.c.j.j.uQtQtQtQtQtQtQtQtQtQtQtQtQtQtQtQtQtQtQtQtQtQtQtQtQtQtQtQtQtQtQtQt",
"QtQtQtQtQtQtQtQtQtQtQtQt.z.j.j.AQtQtQtQtQtQtQtQtQtQtQtQtQtQtQtQtQtQtQtQtQtQtQtQtQtQtQtQtQtQtQtQt",
"QtQtQtQtQtQtQtQtQtQtQtQt.B.j.C.yQtQtQtQtQtQtQtQtQtQtQtQtQtQtQtQtQtQtQtQtQtQtQtQtQtQtQtQtQtQtQtQt",
"QtQtQtQtQtQtQtQt.#.#.u.D.j.E.F.#QtQtQtQtQtQtQtQtQtQtQtQtQtQtQtQtQtQtQtQtQtQtQtQtQtQtQtQtQtQtQtQt",
"QtQtQtQtQtQtQtQt.G.H.j.j.I.J.#.#QtQtQtQtQtQtQtQtQtQtQtQtQtQtQtQtQtQtQtQtQtQtQtQtQtQtQtQtQtQtQtQt",
"QtQtQtQtQtQtQtQt.K.j.j.j.i.L.A.#QtQtQtQtQtQtQtQtQtQtQtQtQtQtQtQtQtQtQtQtQtQtQtQtQtQtQtQtQtQtQtQt",
"QtQtQtQtQtQtQtQt.M.N.O.P.Q.j.R.SQtQtQtQtQtQtQtQtQtQtQtQtQtQtQtQtQtQtQtQtQtQtQtQtQtQtQtQtQtQtQtQt",
"QtQtQtQtQtQtQtQtQtQtQtQt.T.E.j.UQtQtQtQtQtQtQtQtQtQtQtQtQtQtQtQtQtQtQtQtQtQtQtQtQtQtQtQtQtQtQtQt",
"QtQtQtQtQtQtQtQtQtQtQtQt.#.V.j.WQtQtQtQtQtQtQtQtQtQtQtQtQtQtQtQtQtQtQtQtQtQtQtQtQtQtQtQtQtQtQtQt",
"QtQtQtQtQtQtQtQtQtQtQtQt.#.X.j.HQtQtQtQtQtQtQtQtQtQtQtQtQtQtQtQtQtQtQtQtQtQtQtQtQtQtQtQtQtQtQtQt",
"QtQtQtQtQtQtQtQtQtQtQtQt.#.Y.j.ZQtQtQtQtQtQtQtQtQtQtQtQtQtQtQtQtQtQtQtQtQtQtQtQtQtQtQtQtQtQtQtQt",
"QtQtQtQt.#.0.y.#QtQtQtQt.1.j.j.2QtQtQtQtQtQtQtQtQtQtQtQtQtQtQtQtQtQtQtQtQtQtQtQtQtQtQtQtQtQtQtQt",
"QtQtQtQt.#.V.3.4.5.6.7.8.j.j.C.NQtQtQtQtQtQtQtQtQtQtQtQtQtQtQtQtQtQtQtQtQtQtQtQtQtQtQtQtQtQtQtQt",
"QtQtQtQt.#.9.j.j.j.j.j.j.j#.##.#QtQtQtQtQtQtQtQtQtQtQtQtQtQtQtQtQtQtQtQtQtQtQtQtQtQtQtQtQtQtQtQt",
"QtQtQtQt.##a#b.2#c#d#e#f#g.#.#.#QtQtQtQtQtQtQtQtQtQtQtQtQtQtQtQtQtQtQtQtQtQtQtQtQtQtQtQtQtQtQtQt",
"QtQtQtQtQtQtQtQtQtQtQtQtQtQtQtQtQtQtQtQtQtQtQtQtQtQtQtQtQtQtQtQtQtQtQtQtQtQtQtQtQtQtQtQtQtQtQtQt",
"QtQtQtQtQtQtQtQtQtQtQtQtQtQtQtQtQtQtQtQtQtQtQtQtQtQtQtQtQtQtQtQtQtQtQtQtQtQtQtQtQtQtQtQtQtQtQtQt",
"QtQtQtQtQtQtQtQtQtQtQtQtQtQtQtQtQtQtQtQtQtQtQtQtQtQtQtQtQtQtQtQtQtQtQtQtQtQtQtQtQtQtQtQtQtQtQtQt",
"QtQtQtQtQtQtQtQtQtQtQtQtQtQtQtQtQtQtQtQtQtQtQtQtQtQtQtQtQtQtQtQtQtQtQtQtQtQtQtQtQtQtQtQtQtQtQtQt"};
