/* XPM */
static char *dummy[]={
"48 24 48 1",
"c c None",
". c None",
"B c #ffff00",
"J c #ffff40",
"# c #ffff33",
"b c #ffff2a",
"j c #ffff24",
"a c #ffff20",
"G c #ebff27",
"r c #efff20",
"h c #f2ff28",
"t c #f4ff21",
"d c #efff28",
"I c #f4f922",
"w c #f4fa26",
"T c #f5fa24",
"D c #f1fa24",
"z c #f4fb24",
"p c #f5fc23",
"S c #f2fc25",
"O c #f2fc23",
"M c #f3fc23",
"E c #f4fd23",
"y c #f4fd23",
"m c #f2fb24",
"R c #f3fc23",
"s c #f4fc24",
"K c #f4fc24",
"o c #f4fc23",
"x c #f3fc23",
"g c #f3fc24",
"F c #f3fc24",
"L c #f3fc24",
"N c #f3fc24",
"n c #f3fc24",
"k c #f3fc24",
"A c #f2fc24",
"i c #f3fb23",
"q c #f3fc24",
"C c #f3fc24",
"e c #f3fc24",
"u c #f3fc24",
"H c #f3fc24",
"P c #f3fc24",
"Q c #f4fc24",
"l c #f3fc24",
"v c #f3fc24",
"f c #f3fc24",
"................................................",
"............#abc................................",
"........cccdefgc................................",
"........cchiffgc................................",
"........cjkflfgc................................",
"........cmfnofgc................................",
"........pfqrsfgc................................",
"....ccctuvwcsfgc................................",
"....cccxfyccsfgc................................",
"....cczfABccsfgc................................",
"....caCfDcccsfgc................................",
"....cEfF....sfgc................................",
"....GHfIJJJJKfLJBccc............................",
"....MfffffffffffNccc............................",
"....OCCCCCCCPfQCRccc............................",
"............sfgc................................",
"............sfgc................................",
"............sfgc................................",
"............sfgc................................",
"............wSTc................................",
"................................................",
"................................................",
"................................................",
"................................................"};
