/* XPM */
static char *dummy[]={
"48 24 63 1",
"# c None",
". c None",
"a c #ffff00",
"c c #ffff00",
"Q c #ffff2a",
"E c #ffff24",
"b c #ffff20",
"d c #ebff27",
"P c #edff24",
"Z c #f3ff23",
"g c #f5ff29",
"2 c #efff28",
"j c #f0ff24",
"u c #f2ff27",
"y c #f3f924",
"I c #f4f922",
"3 c #f4fa25",
"l c #f5fa24",
"8 c #f1fa25",
"t c #f4fb25",
"n c #f4fb23",
"R c #f5fc23",
"i c #f5fc22",
"f c #f2fc23",
"F c #f3fc25",
"D c #f4fc24",
"p c #f4fc24",
"V c #f3fd24",
"T c #f3fd23",
"r c #f3fd25",
"U c #f4fd23",
"4 c #f2fd25",
"W c #f2fd24",
"7 c #f3fb24",
"v c #f4fb24",
"S c #f4fb23",
"0 c #f3fc24",
"z c #f3fc23",
"J c #f4fc23",
"K c #f2fc25",
"x c #f2fc24",
"6 c #f3fc24",
"A c #f3fc24",
"N c #f3fc24",
"5 c #f3fc24",
"X c #f3fc24",
"1 c #f3fc24",
"q c #f3fc24",
"s c #f3fc24",
"B c #f3fc24",
"O c #f3fd24",
"o c #f3fd24",
"L c #f3fb23",
"G c #f3fc24",
"m c #f3fc24",
"Y c #f3fc24",
"M c #f3fc23",
"h c #f3fc24",
"w c #f3fc24",
"C c #f3fc24",
"k c #f3fc24",
"H c #f3fc24",
"e c #f3fc24",
"................................................",
"....##abbbbbbbbc................................",
"....##deeeeeeeef................................",
"....##geehhhhhhi................................",
"....##jek###....................................",
"....##lem###....................................",
"....##neo###....................................",
"....##peq###....................................",
"....##restuc....................................",
"....##veeeewxy##................................",
"....##pzABCeekD#................................",
"........##EFGeHI................................",
"............gweJ................................",
"............#KeL................................",
"............#veM................................",
"............#NeO................................",
"....#PQ#....RHeS................................",
"....#ThJUVWXeeYZ................................",
"....#0eeeeeee12#................................",
"....#a34J5678a##................................",
"................................................",
"................................................",
"................................................",
"................................................"};
