/* XPM */
static char *dummy[]={
"48 24 79 2",
".# c None",
"Qt c None",
".Z c #ffff00",
".a c #ffff00",
".z c #ffff40",
".c c #ffff33",
".s c #ffff2a",
".S c #ffff1c",
".V c #edff24",
".b c #f2ff28",
".8 c #f4ff20",
".n c #f5ff27",
".D c #f0ff24",
".9 c #f1ff22",
"#m c #f3ff25",
"#j c #f3ff24",
".v c #f3f924",
".y c #f4f922",
".d c #f4f921",
".C c #f5fa24",
".r c #f1fa26",
".i c #f3fb25",
".B c #f3fb23",
".m c #f5fc22",
".E c #f1fc25",
".F c #f2fc24",
".Y c #f2fc23",
"#d c #f3fc25",
".J c #f3fc23",
".6 c #f4fc23",
"#f c #f2fc24",
".P c #f2fc23",
".w c #f3fd25",
"#b c #f4fd25",
".5 c #f2fd25",
".1 c #f2fd24",
"#i c #f3fd25",
".G c #f3fb23",
"#l c #f3fb25",
"#g c #f4fb24",
".e c #f3fb24",
".q c #f3fb23",
".N c #f3fc24",
"#. c #f3fc23",
".2 c #f3fc25",
".O c #f2fc25",
"## c #f2fc24",
".X c #f3fc24",
"#c c #f3fc25",
".j c #f3fc24",
"#k c #f3fc24",
".K c #f3fc24",
"#e c #f3fc24",
".M c #f3fc24",
".T c #f3fc24",
".R c #f3fc25",
".Q c #f3fc24",
".W c #f3fc24",
".t c #f4fc24",
".3 c #f3fd25",
".f c #f3fd24",
".H c #f3fb24",
".o c #f3fb24",
".u c #f3fc24",
".I c #f3fc24",
".A c #f3fc24",
".l c #f3fc24",
"#a c #f3fc24",
".L c #f3fc24",
".U c #f3fc24",
".4 c #f4fc24",
".0 c #f3fc24",
".p c #f3fc24",
".x c #f3fc24",
".g c #f3fc24",
".k c #f3fc24",
"#h c #f3fc24",
".7 c #f3fc24",
".h c #f3fc24",
"QtQtQtQtQtQtQtQtQtQtQtQtQtQtQtQtQtQtQtQtQtQtQtQtQtQtQtQtQtQtQtQtQtQtQtQtQtQtQtQtQtQtQtQtQtQtQtQt",
"QtQtQtQtQtQtQtQtQtQtQtQt.#.a.b.cQtQtQtQtQtQtQtQtQtQtQtQtQtQtQtQtQtQtQtQtQtQtQtQtQtQtQtQtQtQtQtQt",
"QtQtQtQtQtQtQtQt.#.#.d.e.f.g.h.iQtQtQtQtQtQtQtQtQtQtQtQtQtQtQtQtQtQtQtQtQtQtQtQtQtQtQtQtQtQtQtQt",
"QtQtQtQtQtQtQtQt.b.j.h.h.h.k.l.mQtQtQtQtQtQtQtQtQtQtQtQtQtQtQtQtQtQtQtQtQtQtQtQtQtQtQtQtQtQtQtQt",
"QtQtQtQt.#.#.#.n.o.h.p.q.r.s.#.#QtQtQtQtQtQtQtQtQtQtQtQtQtQtQtQtQtQtQtQtQtQtQtQtQtQtQtQtQtQtQtQt",
"QtQtQtQt.#.#.c.t.h.u.v.#QtQtQtQtQtQtQtQtQtQtQtQtQtQtQtQtQtQtQtQtQtQtQtQtQtQtQtQtQtQtQtQtQtQtQtQt",
"QtQtQtQt.#.#.w.h.x.y.#.#QtQtQtQtQtQtQtQtQtQtQtQtQtQtQtQtQtQtQtQtQtQtQtQtQtQtQtQtQtQtQtQtQtQtQtQt",
"QtQtQtQt.#.z.A.h.q.#.#.#QtQtQtQtQtQtQtQtQtQtQtQtQtQtQtQtQtQtQtQtQtQtQtQtQtQtQtQtQtQtQtQtQtQtQtQt",
"QtQtQtQt.#.B.h.h.C.D.E.F.C.a.#.#QtQtQtQtQtQtQtQtQtQtQtQtQtQtQtQtQtQtQtQtQtQtQtQtQtQtQtQtQtQtQtQt",
"QtQtQtQt.#.G.h.h.H.h.h.h.h.I.J.#QtQtQtQtQtQtQtQtQtQtQtQtQtQtQtQtQtQtQtQtQtQtQtQtQtQtQtQtQtQtQtQt",
"QtQtQtQt.#.K.h.h.L.M.N.O.l.h.h.PQtQtQtQtQtQtQtQtQtQtQtQtQtQtQtQtQtQtQtQtQtQtQtQtQtQtQtQtQtQtQtQt",
"QtQtQtQt.#.Q.h.R.z.#.#.#.S.T.h.U.V.#.#.#QtQtQtQtQtQtQtQtQtQtQtQtQtQtQtQtQtQtQtQtQtQtQtQtQtQtQtQt",
"QtQtQtQt.#.W.h.XQtQtQtQt.#.v.h.h.Y.#.#.#QtQtQtQtQtQtQtQtQtQtQtQtQtQtQtQtQtQtQtQtQtQtQtQtQtQtQtQt",
"QtQtQtQt.#.T.h.MQtQtQtQt.#.Z.0.h.1.#.#.#QtQtQtQtQtQtQtQtQtQtQtQtQtQtQtQtQtQtQtQtQtQtQtQtQtQtQtQt",
"QtQtQtQt.#.2.h.3QtQtQtQt.#.Z.4.h.5.#.#.#QtQtQtQtQtQtQtQtQtQtQtQtQtQtQtQtQtQtQtQtQtQtQtQtQtQtQtQt",
"QtQtQtQt.#.6.h.7.8.#.#.#.#.9.h.h.E.#.#.#QtQtQtQtQtQtQtQtQtQtQtQtQtQtQtQtQtQtQtQtQtQtQtQtQtQtQtQt",
"QtQtQtQt.#.V.U.h#..#.#.#.Z##.h#a.S.#.#.#QtQtQtQtQtQtQtQtQtQtQtQtQtQtQtQtQtQtQtQtQtQtQtQtQtQtQtQt",
"QtQtQtQt.#.##b.h.h#c.Y#d#e.h.h#fQtQtQtQtQtQtQtQtQtQtQtQtQtQtQtQtQtQtQtQtQtQtQtQtQtQtQtQtQtQtQtQt",
"QtQtQtQt.#.#.Z#g.h.h.h.h.h#h#i.ZQtQtQtQtQtQtQtQtQtQtQtQtQtQtQtQtQtQtQtQtQtQtQtQtQtQtQtQtQtQtQtQt",
"QtQtQtQtQtQtQtQt#j.G#k.K#l#m.#.#QtQtQtQtQtQtQtQtQtQtQtQtQtQtQtQtQtQtQtQtQtQtQtQtQtQtQtQtQtQtQtQt",
"QtQtQtQtQtQtQtQtQtQtQtQtQtQtQtQtQtQtQtQtQtQtQtQtQtQtQtQtQtQtQtQtQtQtQtQtQtQtQtQtQtQtQtQtQtQtQtQt",
"QtQtQtQtQtQtQtQtQtQtQtQtQtQtQtQtQtQtQtQtQtQtQtQtQtQtQtQtQtQtQtQtQtQtQtQtQtQtQtQtQtQtQtQtQtQtQtQt",
"QtQtQtQtQtQtQtQtQtQtQtQtQtQtQtQtQtQtQtQtQtQtQtQtQtQtQtQtQtQtQtQtQtQtQtQtQtQtQtQtQtQtQtQtQtQtQtQt",
"QtQtQtQtQtQtQtQtQtQtQtQtQtQtQtQtQtQtQtQtQtQtQtQtQtQtQtQtQtQtQtQtQtQtQtQtQtQtQtQtQtQtQtQtQtQtQtQt"};
