/* XPM */
static char *dummy[]={
"48 24 47 1",
"# c None",
". c None",
"N c #ffff00",
"c c #ffff00",
"g c #ffff00",
"r c #ffff40",
"a c #ffff24",
"b c #ffff20",
"I c #eaff2a",
"S c #edff24",
"Q c #f0ff1e",
"C c #f2ff28",
"x c #f4ff20",
"O c #f6ff24",
"l c #f7ff21",
"s c #f0ff24",
"m c #f1ff23",
"f c #f2ff26",
"P c #f2fb22",
"R c #f2fc25",
"G c #f4fc25",
"u c #f4fc23",
"H c #f4fc23",
"o c #f2fc23",
"z c #f3fd25",
"A c #f3fd23",
"j c #f4fd24",
"M c #f3fb25",
"v c #f3fc23",
"J c #f4fc23",
"p c #f3fc23",
"E c #f4fc24",
"K c #f3fc23",
"D c #f3fc24",
"i c #f3fc24",
"h c #f3fc24",
"L c #f4fc24",
"d c #f3fb23",
"w c #f3fb24",
"q c #f3fc24",
"k c #f3fc24",
"n c #f3fc24",
"y c #f3fc24",
"B c #f3fc24",
"F c #f3fc24",
"t c #f3fc24",
"e c #f3fc24",
"................................................",
"....#abbbbbbbbbbc###............................",
"....#deeeeeeeeeef###............................",
"....#deeeeeeeeeef###............................",
"............gheic###............................",
"............jekl................................",
"........###mneo#................................",
"........###peqr#................................",
"........##steu##................................",
"........##vewr##................................",
"........#xyez###................................",
"........#AeBC###................................",
"........#DeE....................................",
"........CFeG....................................",
"........HenI....................................",
"........JeK#....................................",
"........LeM#....................................",
"....###NkeG#....................................",
"....###OeeP#....................................",
"....###QRRS#....................................",
"................................................",
"................................................",
"................................................",
"................................................"};
