/* XPM */
static char *dummy[]={
"48 24 90 2",
".f c None",
"Qt c None",
".e c #ffff00",
".g c #ffff00",
"#t c #ffff2a",
"#a c #ffff24",
".# c #ebff27",
"#d c #efff20",
".X c #f1ff2a",
".M c #f2ff28",
"#i c #f4ff21",
".G c #f6ff24",
".J c #f6ff23",
".v c #f0ff27",
".s c #f1ff22",
".l c #f4f922",
".t c #f4f921",
"#j c #f4fa25",
".d c #f5fa24",
".4 c #f5fa22",
".N c #f2fb26",
".O c #f3fb25",
".2 c #f3fb23",
".5 c #f4fb25",
"#n c #f4fb23",
"#q c #f1fc25",
".a c #f2fc24",
"#e c #f2fc24",
"#o c #f3fc24",
"#. c #f3fc23",
"#b c #f3fc23",
".P c #f4fc24",
".c c #f2fc25",
".Z c #f2fc24",
".u c #f2fc24",
"#u c #f2fc23",
"## c #f3fd25",
".b c #f3fd25",
"#m c #f3fd23",
".Y c #f4fd25",
".S c #f4fd24",
".E c #f4fd23",
".U c #f4fd23",
".h c #f2fd25",
".A c #f2fd24",
"#h c #f3fd25",
".V c #f3fd25",
".o c #f3fd24",
".y c #f3fd24",
".R c #f3fb23",
".m c #f2fb24",
".C c #f3fc24",
".p c #f3fc24",
"#v c #f4fc24",
".H c #f4fc24",
"#s c #f4fc23",
".9 c #f2fc24",
"#p c #f3fc24",
".x c #f3fc24",
"#x c #f3fc23",
"#f c #f3fc24",
"#w c #f3fc25",
".n c #f4fc24",
".I c #f2fc25",
".8 c #f3fc24",
".0 c #f3fc25",
".W c #f3fc24",
".L c #f3fc24",
".k c #f2fc24",
".7 c #f2fc24",
".D c #f3fd24",
"#g c #f3fb24",
"#l c #f3fb24",
".z c #f3fc24",
".1 c #f3fc24",
".w c #f3fc23",
".B c #f3fc24",
"#c c #f3fc24",
"#r c #f3fc24",
".6 c #f3fc24",
".r c #f3fc24",
".q c #f3fc24",
".i c #f3fc24",
".T c #f3fc24",
".K c #f3fc24",
"#k c #f3fc24",
".F c #f3fc24",
".3 c #f3fc24",
".Q c #f3fc24",
".j c #f3fc24",
"QtQtQtQtQtQtQtQtQtQtQtQtQtQtQtQtQtQtQtQtQtQtQtQtQtQtQtQtQtQtQtQtQtQtQtQtQtQtQtQtQtQtQtQtQtQtQtQt",
"QtQtQtQtQtQtQtQt.#.a.b.c.d.e.f.fQtQtQtQtQtQtQtQtQtQtQtQtQtQtQtQtQtQtQtQtQtQtQtQtQtQtQtQtQtQtQtQt",
"QtQtQtQt.f.f.g.h.i.j.j.j.j.k.l.fQtQtQtQtQtQtQtQtQtQtQtQtQtQtQtQtQtQtQtQtQtQtQtQtQtQtQtQtQtQtQtQt",
"QtQtQtQt.f.f.m.j.j.n.o.p.q.j.r.sQtQtQtQtQtQtQtQtQtQtQtQtQtQtQtQtQtQtQtQtQtQtQtQtQtQtQtQtQtQtQtQt",
"QtQtQtQt.f.t.j.j.u.f.f.f.v.w.j.xQtQtQtQtQtQtQtQtQtQtQtQtQtQtQtQtQtQtQtQtQtQtQtQtQtQtQtQtQtQtQtQt",
"QtQtQtQt.f.y.j.z.e.f.f.f.f.A.j.BQtQtQtQtQtQtQtQtQtQtQtQtQtQtQtQtQtQtQtQtQtQtQtQtQtQtQtQtQtQtQtQt",
"QtQtQtQt.f.C.j.DQtQtQtQt.f.b.j.rQtQtQtQtQtQtQtQtQtQtQtQtQtQtQtQtQtQtQtQtQtQtQtQtQtQtQtQtQtQtQtQt",
"QtQtQtQt.f.E.j.F.G.f.f.f.f.H.j.IQtQtQtQtQtQtQtQtQtQtQtQtQtQtQtQtQtQtQtQtQtQtQtQtQtQtQtQtQtQtQtQt",
"QtQtQtQt.f.J.K.j.L.M.f.f.N.F.j.OQtQtQtQtQtQtQtQtQtQtQtQtQtQtQtQtQtQtQtQtQtQtQtQtQtQtQtQtQtQtQtQt",
"QtQtQtQt.f.f.P.Q.j.B.R.S.T.j.U.fQtQtQtQtQtQtQtQtQtQtQtQtQtQtQtQtQtQtQtQtQtQtQtQtQtQtQtQtQtQtQtQt",
"QtQtQtQt.f.f.f.V.j.j.j.j.j.W.X.fQtQtQtQtQtQtQtQtQtQtQtQtQtQtQtQtQtQtQtQtQtQtQtQtQtQtQtQtQtQtQtQt",
"QtQtQtQt.f.f.Y.j.r.Z.b.0.j.j.1.sQtQtQtQtQtQtQtQtQtQtQtQtQtQtQtQtQtQtQtQtQtQtQtQtQtQtQtQtQtQtQtQt",
"QtQtQtQt.f.2.j.3.4.f.f.f.5.6.j.7.e.f.f.fQtQtQtQtQtQtQtQtQtQtQtQtQtQtQtQtQtQtQtQtQtQtQtQtQtQtQtQt",
"QtQtQtQt.f.8.j.9QtQtQtQt.f#..j.j.d.f.f.fQtQtQtQtQtQtQtQtQtQtQtQtQtQtQtQtQtQtQtQtQtQtQtQtQtQtQtQt",
"QtQtQtQt.f.q.j##QtQtQtQt.f#a.j.j#b.f.f.fQtQtQtQtQtQtQtQtQtQtQtQtQtQtQtQtQtQtQtQtQtQtQtQtQtQtQtQt",
"QtQtQtQt.f#c.j.EQtQtQtQt.f#d.j.j#e.f.f.fQtQtQtQtQtQtQtQtQtQtQtQtQtQtQtQtQtQtQtQtQtQtQtQtQtQtQtQt",
"QtQtQtQt.f#f.j#g.#.f.f.f.f#h.j.Q#i.f.f.fQtQtQtQtQtQtQtQtQtQtQtQtQtQtQtQtQtQtQtQtQtQtQtQtQtQtQtQt",
"QtQtQtQt.f#j#k.j#l#m#n#o#p.j.j.CQtQtQtQtQtQtQtQtQtQtQtQtQtQtQtQtQtQtQtQtQtQtQtQtQtQtQtQtQtQtQtQt",
"QtQtQtQt.f.f#q#r.j.j.j.j.j.j#s#tQtQtQtQtQtQtQtQtQtQtQtQtQtQtQtQtQtQtQtQtQtQtQtQtQtQtQtQtQtQtQtQt",
"QtQtQtQt.f.f.f#d#u#v#w#x.y#j.f.fQtQtQtQtQtQtQtQtQtQtQtQtQtQtQtQtQtQtQtQtQtQtQtQtQtQtQtQtQtQtQtQt",
"QtQtQtQtQtQtQtQtQtQtQtQtQtQtQtQtQtQtQtQtQtQtQtQtQtQtQtQtQtQtQtQtQtQtQtQtQtQtQtQtQtQtQtQtQtQtQtQt",
"QtQtQtQtQtQtQtQtQtQtQtQtQtQtQtQtQtQtQtQtQtQtQtQtQtQtQtQtQtQtQtQtQtQtQtQtQtQtQtQtQtQtQtQtQtQtQtQt",
"QtQtQtQtQtQtQtQtQtQtQtQtQtQtQtQtQtQtQtQtQtQtQtQtQtQtQtQtQtQtQtQtQtQtQtQtQtQtQtQtQtQtQtQtQtQtQtQt",
"QtQtQtQtQtQtQtQtQtQtQtQtQtQtQtQtQtQtQtQtQtQtQtQtQtQtQtQtQtQtQtQtQtQtQtQtQtQtQtQtQtQtQtQtQtQtQtQt"};
