/* XPM */
static char *dummy[]={
"48 24 77 2",
".e c None",
"Qt c None",
".s c #ffff00",
".B c #ffff00",
".l c #ffff40",
"#a c #ffff2a",
".F c #ffff24",
".k c #ffff20",
".1 c #ffff1c",
".6 c #ffff19",
".f c #edff24",
".O c #f1ff2a",
".d c #f4ff21",
".X c #f4ff20",
".H c #f5ff29",
".8 c #f6ff23",
".# c #f0ff24",
"#k c #f1ff22",
".Q c #f2ff22",
".L c #f2ff26",
".R c #f5fa23",
"#h c #f5fa22",
".P c #f3fb23",
".K c #f3fb23",
".v c #f4fb22",
"#j c #f4fb24",
".Y c #f1fc25",
".x c #f2fc23",
".G c #f3fc25",
".c c #f3fc24",
"#i c #f3fc23",
".a c #f4fc24",
".w c #f4fc24",
".D c #f4fc24",
".T c #f2fc25",
".t c #f2fc23",
".b c #f3fd25",
".U c #f3fd24",
".3 c #f3fd23",
".J c #f3fd25",
".o c #f3fd25",
".S c #f3fd24",
".2 c #f3fb25",
".9 c #f4fb24",
"#. c #f3fb23",
".j c #f3fc24",
".V c #f3fc23",
"#e c #f3fc24",
"#b c #f4fc24",
".n c #f2fc25",
"#g c #f2fc24",
".g c #f3fc24",
".4 c #f3fc25",
".p c #f3fc24",
".r c #f3fc23",
".M c #f3fc25",
"#c c #f3fc24",
".A c #f2fc25",
"## c #f3fc25",
".m c #f3fc23",
".5 c #f3fc24",
".y c #f3fc24",
".z c #f4fc24",
"#d c #f3fb24",
".N c #f3fc24",
".W c #f3fc23",
".Z c #f3fc24",
".I c #f3fc24",
"#f c #f3fc24",
".7 c #f3fc24",
".E c #f3fc24",
".0 c #f3fc24",
".C c #f3fc24",
".i c #f3fc24",
".u c #f3fc24",
".q c #f3fc24",
".h c #f3fc24",
"QtQtQtQtQtQtQtQtQtQtQtQtQtQtQtQtQtQtQtQtQtQtQtQtQtQtQtQtQtQtQtQtQtQtQtQtQtQtQtQtQtQtQtQtQtQtQtQt",
"QtQtQtQtQtQtQtQt.#.a.b.c.d.e.e.eQtQtQtQtQtQtQtQtQtQtQtQtQtQtQtQtQtQtQtQtQtQtQtQtQtQtQtQtQtQtQtQt",
"QtQtQtQt.e.e.f.g.h.h.h.h.i.j.k.eQtQtQtQtQtQtQtQtQtQtQtQtQtQtQtQtQtQtQtQtQtQtQtQtQtQtQtQtQtQtQtQt",
"QtQtQtQt.e.l.m.h.i.n.o.p.q.h.r.sQtQtQtQtQtQtQtQtQtQtQtQtQtQtQtQtQtQtQtQtQtQtQtQtQtQtQtQtQtQtQtQt",
"QtQtQtQt.e.t.h.u.v.e.e.e.w.h.h.xQtQtQtQtQtQtQtQtQtQtQtQtQtQtQtQtQtQtQtQtQtQtQtQtQtQtQtQtQtQtQtQt",
"QtQtQtQt.e.y.h.nQtQtQtQt.s.z.h.AQtQtQtQtQtQtQtQtQtQtQtQtQtQtQtQtQtQtQtQtQtQtQtQtQtQtQtQtQtQtQtQt",
"QtQtQtQt.B.C.h.DQtQtQtQt.e.o.h.E.s.e.e.eQtQtQtQtQtQtQtQtQtQtQtQtQtQtQtQtQtQtQtQtQtQtQtQtQtQtQtQt",
"QtQtQtQt.F.h.h.GQtQtQtQt.e.c.h.h.H.e.e.eQtQtQtQtQtQtQtQtQtQtQtQtQtQtQtQtQtQtQtQtQtQtQtQtQtQtQtQt",
"QtQtQtQt.e.I.h.JQtQtQtQt.e.K.h.h.L.e.e.eQtQtQtQtQtQtQtQtQtQtQtQtQtQtQtQtQtQtQtQtQtQtQtQtQtQtQtQt",
"QtQtQtQt.e.M.h.N.O.e.e.e.e.P.h.h.Q.e.e.eQtQtQtQtQtQtQtQtQtQtQtQtQtQtQtQtQtQtQtQtQtQtQtQtQtQtQtQt",
"QtQtQtQt.e.R.C.h.N.S.T.U.V.W.h.h.X.e.e.eQtQtQtQtQtQtQtQtQtQtQtQtQtQtQtQtQtQtQtQtQtQtQtQtQtQtQtQt",
"QtQtQtQt.e.e.Y.Z.h.h.h.h.h.u.h.0.B.e.e.eQtQtQtQtQtQtQtQtQtQtQtQtQtQtQtQtQtQtQtQtQtQtQtQtQtQtQtQt",
"QtQtQtQt.e.e.e.1.x.J.2.3.R.4.h.5QtQtQtQtQtQtQtQtQtQtQtQtQtQtQtQtQtQtQtQtQtQtQtQtQtQtQtQtQtQtQtQt",
"QtQtQtQtQtQtQtQtQtQtQtQt.6.7.h.oQtQtQtQtQtQtQtQtQtQtQtQtQtQtQtQtQtQtQtQtQtQtQtQtQtQtQtQtQtQtQtQt",
"QtQtQtQtQtQtQtQtQtQtQtQt.S.h.C.8QtQtQtQtQtQtQtQtQtQtQtQtQtQtQtQtQtQtQtQtQtQtQtQtQtQtQtQtQtQtQtQt",
"QtQtQtQtQtQtQtQt.e.e.e.x.u.h.9.eQtQtQtQtQtQtQtQtQtQtQtQtQtQtQtQtQtQtQtQtQtQtQtQtQtQtQtQtQtQtQtQt",
"QtQtQtQtQtQtQtQt.e.8#..q.h###a.eQtQtQtQtQtQtQtQtQtQtQtQtQtQtQtQtQtQtQtQtQtQtQtQtQtQtQtQtQtQtQtQt",
"QtQtQtQt.e.1#b#c#d.h.h.h#e.k.e.eQtQtQtQtQtQtQtQtQtQtQtQtQtQtQtQtQtQtQtQtQtQtQtQtQtQtQtQtQtQtQtQt",
"QtQtQtQt.e.k.h.h.h#f#g#hQtQtQtQtQtQtQtQtQtQtQtQtQtQtQtQtQtQtQtQtQtQtQtQtQtQtQtQtQtQtQtQtQtQtQtQt",
"QtQtQtQt.e.s#i#j#k.B.e.eQtQtQtQtQtQtQtQtQtQtQtQtQtQtQtQtQtQtQtQtQtQtQtQtQtQtQtQtQtQtQtQtQtQtQtQt",
"QtQtQtQtQtQtQtQtQtQtQtQtQtQtQtQtQtQtQtQtQtQtQtQtQtQtQtQtQtQtQtQtQtQtQtQtQtQtQtQtQtQtQtQtQtQtQtQt",
"QtQtQtQtQtQtQtQtQtQtQtQtQtQtQtQtQtQtQtQtQtQtQtQtQtQtQtQtQtQtQtQtQtQtQtQtQtQtQtQtQtQtQtQtQtQtQtQt",
"QtQtQtQtQtQtQtQtQtQtQtQtQtQtQtQtQtQtQtQtQtQtQtQtQtQtQtQtQtQtQtQtQtQtQtQtQtQtQtQtQtQtQtQtQtQtQtQt",
"QtQtQtQtQtQtQtQtQtQtQtQtQtQtQtQtQtQtQtQtQtQtQtQtQtQtQtQtQtQtQtQtQtQtQtQtQtQtQtQtQtQtQtQtQtQtQtQt"};
