/* XPM */
static char *cbaf901c5e314dadcda6355066a2dfc1kNO8F705weQq88YG[] = {
/* columns rows colors chars-per-pixel */
"96 93 14 1 ",
"  c None",
". c black",
"X c #3F3F3A",
"o c #472916",
"O c #572D4F",
"+ c #2D716F",
"@ c #941310",
"# c #834F2C",
"$ c #FF6F17",
"% c #F30743",
"& c #F89D16",
"* c #8C3586",
"= c #F753A9",
"- c white",
/* pixels */
"                                                                                                ",
"                                                                                                ",
"                                                                                                ",
"                                                                                                ",
"                                                                                                ",
"                                                                                                ",
"                                                                                                ",
"                                                                                                ",
"                                                                                                ",
"                                                                                                ",
"                                                                                                ",
"                                                                                                ",
"                                ............                                                    ",
"                                ............                                                    ",
"                                ............                                                    ",
"                          ......%%%%%%%%%%%%.....                                               ",
"                          ......%%%%%%%%%%%%.....                                               ",
"                       ...============%%%%%%%%%%%...                                            ",
"                       ...============%%%%%%%%%%%...                                            ",
"                       ...============%%%%%%%%%%%...                                            ",
"                    ...=========%%%%%%%%%%%%%%%%%%%%...                                         ",
"                    ...=========%%%%%%%%%%%%%%%%%%%%...                                         ",
"                    ...=========%%%%%%%%%%%%%%%%%%%%...                                         ",
"                 ...=========%%%%%%@@@@@@@@@%%%%%%%%%%%......                                   ",
"                 ...=========%%%%%%@@@@@@@@@%%%%%%%%%%%......                                   ",
"                 ...=========%%%%%%@@@@@@@@@%%%%%%%%%%%......                                   ",
"               ..%%%======%%%%%%@@@%%%%%%%%%@@@%%%%%%%%%%%@@@......                             ",
"               ..%%%======%%%%%%@@@%%%%%%%%%@@@%%%%%%%%%%%@@@......                             ",
"               ..%%%======%%%%%%@@@%%%%%%%%%@@@%%%%%%%%%%%@@@......                             ",
"               ..%%%%%%%%%%%%%%%%%%......%%%%%%%%%%%%%%%%%%%%%%%@@@......                       ",
"               ..%%%%%%%%%%%%%%%%%%......%%%%%%%%%%%%%%%%%%%%%%%@@@......                       ",
"               ..%%%%%%%%%%%%%%%%%%......%%%%%%%%%%%%%%%%%%%%%%%@@@......                       ",
"            ........%%%%%%%%%%%%...---+++...%%%%%%%%%%%%%%%%%%%%%%%%%%@@@...                    ",
"            ........%%%%%%%%%%%%...---+++...%%%%%%%%%%%%%%%%%%%%%%%%%%@@@...                    ",
"            ........%%%%%%%%%%%%...---+++...%%%%%%%%%%%%%%%%%%%%%%%%%%@@@...                    ",
"      ......&&&&&$$$...%%%%%%%%%...+++......%%%%%%%%%%%%%%%%%%%%%%%%%%%%%@@@...                 ",
"      ......&&&&&$$$...%%%%%%%%%...+++......%%%%%%%%%%%%%%%%%%%%%%%%%%%%%@@@...                 ",
"      ......&&&&&$$$...%%%%%%%%%...+++......%%%%%%%%%%%%%%%%%%%%%%%%%%%%%@@@...                 ",
"   ...$$$&&&$$$$$$$$...%%%%%%%%%.........XXX%%%%%%%%%%%%%%%%%%%%%%%%%%%%%%%%@@@..               ",
"   ...$$$&&&$$$$$$$$...%%%%%%%%%.........XXX%%%%%%%%%%%%%%%%%%%%%%%%%%%%%%%%@@@..               ",
"   ...$$$&&&$$$$$$$$...%%%%%%%%%.........XXX%%%%%%%%%%%%%%%%%%%%%%%%%%%%%%%%@@@..               ",
"   ...ooooooooooo$$$...%%%%%%%%%......XXX%%%%%%%%%%%%%%%%%%%%%%%%%%%%%%%%%%%%%%...........      ",
"   ...ooooooooooo$$$...%%%%%%%%%......XXX%%%%%%%%%%%%%%%%%%%%%%%%%%%%%%%%%%%%%%...........      ",
"   ...ooooooooooo$$$...%%%%%%%%%......XXX%%%%%%%%%%%%%%%%%%%%%%%%%%%%%%%%%%%%%%...........      ",
"      ......########...@@@%%%%%%%%%%%%%%%%%%@@@@@@@@%%%%%%%%%%%%%%%%%%%%%%%%%%%@@...%%%%%%...   ",
"      ......########...@@@%%%%%%%%%%%%%%%%%%@@@@@@@@%%%%%%%%%%%%%%%%%%%%%%%%%%%@@...%%%%%%...   ",
"      ......########...@@@%%%%%%%%%%%%%%%%%%@@@@@@@@%%%%%%%%%%%%%%%%%%%%%%%%%%%@@...%%%%%%...   ",
"            ........@@@@@@@@@@@@@@@@@@@@@@@@@@@@@@@@@@@%%%%%%%%%%%%%%%%%%%%%%%%@@...%%%@@@...   ",
"            ........@@@@@@@@@@@@@@@@@@@@@@@@@@@@@@@@@@@%%%%%%%%%%%%%%%%%%%%%%%%@@...%%%@@@...   ",
"                 ...OOO@@@@@@@@@@@@@@@@@@@@@@@@@@******@@@%%%%%%%%%%%%%%%%%%%%%%%...@@@***...   ",
"                 ...OOO@@@@@@@@@@@@@@@@@@@@@@@@@@******@@@%%%%%%%%%%%%%%%%%%%%%%%...@@@***...   ",
"                 ...OOO@@@@@@@@@@@@@@@@@@@@@@@@@@******@@@%%%%%%%%%%%%%%%%%%%%%%%...@@@***...   ",
"                    ...OOOOOO@@@@@@@@@@@@@@@@@@**OOOOOO@@@%%%%%%%%%%%%%%%%%%%%%%%...***OOO...   ",
"                    ...OOOOOO@@@@@@@@@@@@@@@@@@**OOOOOO@@@%%%%%%%%%%%%%%%%%%%%%%%...***OOO...   ",
"                    ...OOOOOO@@@@@@@@@@@@@@@@@@**OOOOOO@@@%%%%%%%%%%%%%%%%%%%%%%%...***OOO...   ",
"                       ...OOOOOOOOOOOOOOOOOOOOOOOOOOOOOOOO@@@%%%%%%%%%%%%%%%%%%%%.........      ",
"                       ...OOOOOOOOOOOOOOOOOOOOOOOOOOOOOOOO@@@%%%%%%%%%%%%%%%%%%%%.........      ",
"                       ...OOOOOOOOOOOOOOOOOOOOOOOOOOOOOOOO@@@%%%%%%%%%%%%%%%%%%%%.........      ",
"                          ...OOOOOOOOOOOOOOOOOOOOOOOOOOOOO@@@%%%%%%%%%%%%%%%%%%%%...            ",
"                          ...OOOOOOOOOOOOOOOOOOOOOOOOOOOOO@@@%%%%%%%%%%%%%%%%%%%%...            ",
"                          ...OOOOOOOOOOOOOOOOOOOOOOOOOOOOO@@@%%%%%%%%%%%%%%%%%%%%...            ",
"                             ......OOOOOOOOOOOOOOOOOOOOOOOOOO@@@%%%%%%%%%%%%%%%%%...            ",
"                             ......OOOOOOOOOOOOOOOOOOOOOOOOOO@@@%%%%%%%%%%%%%%%%%...            ",
"                             ......OOOOOOOOOOOOOOOOOOOOOOOOOO@@@%%%%%%%%%%%%%%%%%...            ",
"                                   ..........................@@@%%%%%%%%%%%%%%%@@...            ",
"                                   ..........................@@@%%%%%%%%%%%%%%%@@...            ",
"                                   ..........................@@@%%%%%%%%%%%%%%%@@...            ",
"                                                             ...@@@%%%%%%%%%%%%@@...            ",
"                                                             ...@@@%%%%%%%%%%%%@@...            ",
"                                                             ...@@@%%%%%%%%%%%%@@...            ",
"                                                             ...@@@%%%%%%%%%%%%..               ",
"                                                             ...@@@%%%%%%%%%%%%..               ",
"                                                             ...@@@%%%%%%%%%%%%..               ",
"                                                                ...@@@%%%%%%%%%..               ",
"                                                                ...@@@%%%%%%%%%..               ",
"                                                                ...@@@%%%%%%%%%..               ",
"                                                                ...@@@%%%%%%@@@..               ",
"                                                                ...@@@%%%%%%@@@..               ",
"                                                                   ...@@@@@@...                 ",
"                                                                   ...@@@@@@...                 ",
"                                                                   ...@@@@@@...                 ",
"                                                                      ......                    ",
"                                                                      ......                    ",
"                                                                      ......                    ",
"                                                                                                ",
"                                                                                                ",
"                                                                                                ",
"                                                                                                ",
"                                                                                                ",
"                                                                                                ",
"                                                                                                ",
"                                                                                                ",
"                                                                                                "
};
