/* XPM */
static char *_e230cf971cc4b41ca3ab699fce416defWNbAzMWEscH4vl3[] = {
/* columns rows colors chars-per-pixel */
"96 93 15 1 ",
"  c None",
". c black",
"X c #3F3F3A",
"o c #472916",
"O c #572D4F",
"+ c #2D716F",
"@ c #941310",
"# c #834F2C",
"$ c #FF6F17",
"% c #F30743",
"& c #F89D16",
"* c #8C3586",
"= c #F753A9",
"- c #C747C4",
"; c white",
/* pixels */
"                                                                                                ",
"                                                                                                ",
"                                                                                                ",
"                                                                                                ",
"                                                                                                ",
"                                                                                                ",
"                                                                                                ",
"                                                                                                ",
"                                                                                                ",
"                                                                                                ",
"                                                                                                ",
"                                                                                                ",
"                                                                                                ",
"                                                                                                ",
"                                                                                                ",
"                                                                            .....               ",
"                                                                            .....               ",
"                                                                         ...-----...            ",
"                                                                         ...-----...            ",
"                                                                         ...-----...            ",
"                                ............                          ...---*****---...         ",
"                                ............                          ...---*****---...         ",
"                                ............                          ...---*****---...         ",
"                          ......%%%%%%%%%%%%.....                     ...---********...         ",
"                          ......%%%%%%%%%%%%.....                     ...---********...         ",
"                          ......%%%%%%%%%%%%.....                     ...---********...         ",
"                       ...============%%%%%%%%%%%...               ...---**************...      ",
"                       ...============%%%%%%%%%%%...               ...---**************...      ",
"                       ...============%%%%%%%%%%%...               ...---**************...      ",
"                    ...=========%%%%%%%%%%%%%%%%%%%%...            ...---**************...      ",
"                    ...=========%%%%%%%%%%%%%%%%%%%%...            ...---**************...      ",
"                    ...=========%%%%%%%%%%%%%%%%%%%%...            ...---**************...      ",
"                 ...=========%%%%%%@@@@@@@@@%%%%%%%%%%%...      ...---*****************...      ",
"                 ...=========%%%%%%@@@@@@@@@%%%%%%%%%%%...      ...---*****************...      ",
"                 ...=========%%%%%%@@@@@@@@@%%%%%%%%%%%...      ...---*****************...      ",
"               ..%%%======%%%%%%@@@%%%%%%%%%@@@%%%%%%%%%%%......@@@---*****************...      ",
"               ..%%%======%%%%%%@@@%%%%%%%%%@@@%%%%%%%%%%%......@@@---*****************...      ",
"               ..%%%======%%%%%%@@@%%%%%%%%%@@@%%%%%%%%%%%......@@@---*****************...      ",
"               ..%%%%%%%%%%%%%%%%%%......%%%%%%%%%%%%%%%%%%%%%%%---********************...      ",
"               ..%%%%%%%%%%%%%%%%%%......%%%%%%%%%%%%%%%%%%%%%%%---********************...      ",
"               ..%%%%%%%%%%%%%%%%%%......%%%%%%%%%%%%%%%%%%%%%%%---********************...      ",
"            ........%%%%%%%%%%%%...;;;+++...%%%%%%%%%%%%%%%%%---********************OOO...      ",
"            ........%%%%%%%%%%%%...;;;+++...%%%%%%%%%%%%%%%%%---********************OOO...      ",
"            ........%%%%%%%%%%%%...;;;+++...%%%%%%%%%%%%%%%%%---********************OOO...      ",
"      ......&&&&&$$$...%%%%%%%%%...+++......%%%%%%%%%%%@@@@@@---********************...         ",
"      ......&&&&&$$$...%%%%%%%%%...+++......%%%%%%%%%%%@@@@@@---********************...         ",
"      ......&&&&&$$$...%%%%%%%%%...+++......%%%%%%%%%%%@@@@@@---********************...         ",
"   ...$$$&&&$$$$$$$$...%%%%%%%%%.........XXX%%%%%%%%@@@@@@---******************OOOOO...         ",
"   ...$$$&&&$$$$$$$$...%%%%%%%%%.........XXX%%%%%%%%@@@@@@---******************OOOOO...         ",
"   ...ooooooooooo$$$...%%%%%%%%%......XXX%%%%%%%%@@@@@@@@@---*********OOOOOOOOOOOOOO......      ",
"   ...ooooooooooo$$$...%%%%%%%%%......XXX%%%%%%%%@@@@@@@@@---*********OOOOOOOOOOOOOO......      ",
"   ...ooooooooooo$$$...%%%%%%%%%......XXX%%%%%%%%@@@@@@@@@---*********OOOOOOOOOOOOOO......      ",
"      ......########...@@@%%%%%%%%%%%%%%%%%%@@@@@@@@@@@***OOOOOOOOOOOOOOOOOOOOOOO...%%%%%%...   ",
"      ......########...@@@%%%%%%%%%%%%%%%%%%@@@@@@@@@@@***OOOOOOOOOOOOOOOOOOOOOOO...%%%%%%...   ",
"      ......########...@@@%%%%%%%%%%%%%%%%%%@@@@@@@@@@@***OOOOOOOOOOOOOOOOOOOOOOO...%%%%%%...   ",
"            ........@@@@@@@@@@@@@@@@@@@@@@@@@@@@@@@@***OOOOOOOOOOOOOOOOOOOOOOOOOO...%%%@@@...   ",
"            ........@@@@@@@@@@@@@@@@@@@@@@@@@@@@@@@@***OOOOOOOOOOOOOOOOOOOOOOOOOO...%%%@@@...   ",
"            ........@@@@@@@@@@@@@@@@@@@@@@@@@@@@@@@@***OOOOOOOOOOOOOOOOOOOOOOOOOO...%%%@@@...   ",
"                 ...OOO@@@@@@@@@@@@@@@@@@@@@@@@@@***OOOOOOOOOOOOOOOOOOOOOOOOOOO..@@@@@@***...   ",
"                 ...OOO@@@@@@@@@@@@@@@@@@@@@@@@@@***OOOOOOOOOOOOOOOOOOOOOOOOOOO..@@@@@@***...   ",
"                 ...OOO@@@@@@@@@@@@@@@@@@@@@@@@@@***OOOOOOOOOOOOOOOOOOOOOOOOOOO..@@@@@@***...   ",
"                    ...OOOOOO@@@@@@@@@@@@@@@@@@**OOOOOOOOOOOOOOOOOOOOOOOOOOOOOO..******OOO...   ",
"                    ...OOOOOO@@@@@@@@@@@@@@@@@@**OOOOOOOOOOOOOOOOOOOOOOOOOOOOOO..******OOO...   ",
"                    ...OOOOOO@@@@@@@@@@@@@@@@@@**OOOOOOOOOOOOOOOOOOOOOOOOOOOOOO..******OOO...   ",
"                       ...OOOOOOOOOOOOOOOOOOOOOOOOOOOOOOOOOOOOOOOOOOOOOOOOOO...OOOOO......      ",
"                       ...OOOOOOOOOOOOOOOOOOOOOOOOOOOOOOOOOOOOOOOOOOOOOOOOOO...OOOOO......      ",
"                       ...OOOOOOOOOOOOOOOOOOOOOOOOOOOOOOOOOOOOOOOOOOOOOOOOOO...OOOOO......      ",
"                          ...OOOOOOOOOOOOOOOOOOOOOOOOOOOOOOOOOOOOOOOOOOOO...........            ",
"                          ...OOOOOOOOOOOOOOOOOOOOOOOOOOOOOOOOOOOOOOOOOOOO...........            ",
"                          ...OOOOOOOOOOOOOOOOOOOOOOOOOOOOOOOOOOOOOOOOOOOO...........            ",
"                             ......OOOOOOOOOOOOOOOOOOOOOOOOOOOOOOOO......                       ",
"                             ......OOOOOOOOOOOOOOOOOOOOOOOOOOOOOOOO......                       ",
"                             ......OOOOOOOOOOOOOOOOOOOOOOOOOOOOOOOO......                       ",
"                                   ................................                             ",
"                                   ................................                             ",
"                                   ................................                             ",
"                                                                                                ",
"                                                                                                ",
"                                                                                                ",
"                                                                                                ",
"                                                                                                ",
"                                                                                                ",
"                                                                                                ",
"                                                                                                ",
"                                                                                                ",
"                                                                                                ",
"                                                                                                ",
"                                                                                                ",
"                                                                                                ",
"                                                                                                ",
"                                                                                                ",
"                                                                                                ",
"                                                                                                "
};
