/* XPM */
static char *c4d75d5afa044991c39c34f9f93b51a4WetENmeDaU4wzG8W[] = {
/* columns rows colors chars-per-pixel */
"96 90 14 1 ",
"  c None",
". c black",
"X c #3F3F3A",
"o c #472916",
"O c #572D4F",
"+ c #2D716F",
"@ c #941310",
"# c #834F2C",
"$ c #FF6F17",
"% c #F30743",
"& c #F89D16",
"* c #8C3586",
"= c #F753A9",
"- c white",
/* pixels */
"                                                                                                ",
"                                                                                                ",
"                                                                                                ",
"                                                                                                ",
"                                                                                                ",
"                                                                                                ",
"                                                                                                ",
"                                                                                                ",
"                                                                                                ",
"                                                                                                ",
"                                                                                                ",
"                                                                                                ",
"                                                      ...........                               ",
"                                                      ...........                               ",
"                                                ......%%%%%%%%%%%......                         ",
"                                                ......%%%%%%%%%%%......                         ",
"                                                ......%%%%%%%%%%%......                         ",
"                                             ...%%%%%%%%%%%%===========...                      ",
"                                             ...%%%%%%%%%%%%===========...                      ",
"                                             ...%%%%%%%%%%%%===========...                      ",
"                                          ...%%%%%%%%%%%%%%%%%%%%=========...                   ",
"                                          ...%%%%%%%%%%%%%%%%%%%%=========...                   ",
"                                          ...%%%%%%%%%%%%%%%%%%%%=========...                   ",
"                                    ......%%%%%%%%%%%%@@@@@@@@%%%%%%=========...                ",
"                                    ......%%%%%%%%%%%%@@@@@@@@%%%%%%=========...                ",
"                                    ......%%%%%%%%%%%%@@@@@@@@%%%%%%=========...                ",
"                                ....@@@%%%%%%%%%%%%@@@%%%%%%%%@@@%%%%%%======%%%...             ",
"                                ....@@@%%%%%%%%%%%%@@@%%%%%%%%@@@%%%%%%======%%%...             ",
"                                ....@@@%%%%%%%%%%%%@@@%%%%%%%%@@@%%%%%%======%%%...             ",
"                          ......@@@%%%%%%%%%%%%%%%%%%%%%%.....%%%%%%%%%%%%%%%%%%...             ",
"                          ......@@@%%%%%%%%%%%%%%%%%%%%%%.....%%%%%%%%%%%%%%%%%%...             ",
"                          ......@@@%%%%%%%%%%%%%%%%%%%%%%.....%%%%%%%%%%%%%%%%%%...             ",
"                       ...@@@%%%%%%%%%%%%%%%%%%%%%%%%%...+++--...%%%%%%%%%%%%.......            ",
"                       ...@@@%%%%%%%%%%%%%%%%%%%%%%%%%...+++--...%%%%%%%%%%%%.......            ",
"                       ...@@@%%%%%%%%%%%%%%%%%%%%%%%%%...+++--...%%%%%%%%%%%%.......            ",
"                    ...@@@%%%%%%%%%%%%%%%%%%%%%%%%%%%%......++...%%%%%%%%%...$$$&&&&......      ",
"                 ...@@@%%%%%%%%%%%%%%%%%%%%%%%%%%%%%%%XXX........%%%%%%%%%...$$$$$$$&&&$$$...   ",
"                 ...@@@%%%%%%%%%%%%%%%%%%%%%%%%%%%%%%%XXX........%%%%%%%%%...$$$$$$$&&&$$$...   ",
"                 ...@@@%%%%%%%%%%%%%%%%%%%%%%%%%%%%%%%XXX........%%%%%%%%%...$$$$$$$&&&$$$...   ",
"...      ...........%%%%%%%%%%%%%%%%%%%%%%%%%%%%%%%%%%%%%XXX.....%%%%%%%%%...$$$oooooooooo...   ",
"...      ...........%%%%%%%%%%%%%%%%%%%%%%%%%%%%%%%%%%%%%XXX.....%%%%%%%%%...$$$oooooooooo...   ",
"...      ...........%%%%%%%%%%%%%%%%%%%%%%%%%%%%%%%%%%%%%XXX.....%%%%%%%%%...$$$oooooooooo...   ",
"...   ...%%%%%...@@@%%%%%%%%%%%%%%%%%%%%%%%%%@@@@@@@@@%%%%%%%%%%%%%%%%%@@@...#######......      ",
"...   ...%%%%%...@@@%%%%%%%%%%%%%%%%%%%%%%%%%@@@@@@@@@%%%%%%%%%%%%%%%%%@@@...#######......      ",
"...   ...%%%%%...@@@%%%%%%%%%%%%%%%%%%%%%%%%%@@@@@@@@@%%%%%%%%%%%%%%%%%@@@...#######......      ",
"      ...@@@%%...@@@%%%%%%%%%%%%%%%%%%%%%%@@@@@@@@@@@@@@@@@@@@@@@@@@@@@@@@@@@.......            ",
"      ...@@@%%...@@@%%%%%%%%%%%%%%%%%%%%%%@@@@@@@@@@@@@@@@@@@@@@@@@@@@@@@@@@@.......            ",
"      ...@@@%%...@@@%%%%%%%%%%%%%%%%%%%%%%@@@@@@@@@@@@@@@@@@@@@@@@@@@@@@@@@@@.......            ",
"      ...***@@...%%%%%%%%%%%%%%%%%%%%%%@@@******@@@@@@@@@@@@@@@@@@@@@@@@@@OOO...                ",
"      ...***@@...%%%%%%%%%%%%%%%%%%%%%%@@@******@@@@@@@@@@@@@@@@@@@@@@@@@@OOO...                ",
"      ...***@@...%%%%%%%%%%%%%%%%%%%%%%@@@******@@@@@@@@@@@@@@@@@@@@@@@@@@OOO...                ",
"      ...OOO**...%%%%%%%%%%%%%%%%%%%%%%@@@OOOOOO***@@@@@@@@@@@@@@@@@OOOOOO...                   ",
"      ...OOO**...%%%%%%%%%%%%%%%%%%%%%%@@@OOOOOO***@@@@@@@@@@@@@@@@@OOOOOO...                   ",
"      ...OOO**...%%%%%%%%%%%%%%%%%%%%%%@@@OOOOOO***@@@@@@@@@@@@@@@@@OOOOOO...                   ",
"         ........%%%%%%%%%%%%%%%%%%%@@@OOOOOOOOOOOOOOOOOOOOOOOOOOOOOOOO...                      ",
"         ........%%%%%%%%%%%%%%%%%%%@@@OOOOOOOOOOOOOOOOOOOOOOOOOOOOOOOO...                      ",
"         ........%%%%%%%%%%%%%%%%%%%@@@OOOOOOOOOOOOOOOOOOOOOOOOOOOOOOOO...                      ",
"              ...%%%%%%%%%%%%%%%%%%%@@@OOOOOOOOOOOOOOOOOOOOOOOOOOOOO...                         ",
"              ...%%%%%%%%%%%%%%%%%%%@@@OOOOOOOOOOOOOOOOOOOOOOOOOOOOO...                         ",
"              ...%%%%%%%%%%%%%%%%%%@OOOOOOOOOOOOOOOOOOOOOOOOOO......                            ",
"              ...%%%%%%%%%%%%%%%%%%@OOOOOOOOOOOOOOOOOOOOOOOOOO......                            ",
"              ...%%%%%%%%%%%%%%%%%%@OOOOOOOOOOOOOOOOOOOOOOOOOO......                            ",
"              ...@@@%%%%%%%%%%%%%%%@..........................                                  ",
"              ...@@@%%%%%%%%%%%%%%%@..........................                                  ",
"              ...@@@%%%%%%%%%%%%%%%@..........................                                  ",
"              ...@@@%%%%%%%%%%%%@@@.                                                            ",
"              ...@@@%%%%%%%%%%%%@@@.                                                            ",
"              ...@@@%%%%%%%%%%%%@@@.                                                            ",
"                 ...%%%%%%%%%%%%@@@.                                                            ",
"                 ...%%%%%%%%%%%%@@@.                                                            ",
"                 ...%%%%%%%%%%%%@@@.                                                            ",
"                 ...%%%%%%%%%@@@...                                                             ",
"                 ...%%%%%%%%%@@@...                                                             ",
"                 ...%%%%%%%%%@@@...                                                             ",
"                 ...@@@%%%%%%@@@...                                                             ",
"                 ...@@@%%%%%%@@@...                                                             ",
"                 ...@@@%%%%%%@@@...                                                             ",
"                    ...@@@@@@...                                                                ",
"                    ...@@@@@@...                                                                ",
"                    ...@@@@@@...                                                                ",
"                       ......                                                                   ",
"                                                                                                ",
"                                                                                                ",
"                                                                                                ",
"                                                                                                ",
"                                                                                                ",
"                                                                                                ",
"                                                                                                ",
"                                                                                                ",
"                                                                                                "
};
