/* XPM */
static char *_71fd788bc584493f42e4aac27cc23dc9lWTi6PCiRsGcEga[] = {
/* columns rows colors chars-per-pixel */
"96 96 15 1 ",
"  c None",
". c black",
"X c #3F3F3A",
"o c #472916",
"O c #572D4F",
"+ c #2D716F",
"@ c #941310",
"# c #834F2C",
"$ c #FF6F17",
"% c #F30743",
"& c #F89D16",
"* c #8C3586",
"= c #F753A9",
"- c #C747C4",
"; c white",
/* pixels */
"                                                                                                ",
"                                                                                                ",
"                                                                                                ",
"                                                                                                ",
"                                                                                                ",
"                                                                                                ",
"                                                                                                ",
"                                                                                                ",
"                                                                                                ",
"                                                                                                ",
"                                                                                                ",
"                                                                                                ",
"                                                                                                ",
"                                                                                                ",
"                                                                                                ",
"               ......                                                                           ",
"               ......                                                                           ",
"               ......                                                                           ",
"            ...------...                                                                        ",
"            ...------...                                                                        ",
"            ...------...                                                                        ",
"         ...---******---...                           ............                              ",
"         ...---******---...                           ............                              ",
"         ...---******---...                           ............                              ",
"         ...*********---...                     ......%%%%%%%%%%%%......                        ",
"         ...*********---...                     ......%%%%%%%%%%%%......                        ",
"         ...*********---...                     ......%%%%%%%%%%%%......                        ",
"      ...***************---...               ...%%%%%%%%%%%%============...                     ",
"      ...***************---...               ...%%%%%%%%%%%%============...                     ",
"      ...***************---...               ...%%%%%%%%%%%%============...                     ",
"      ...***************---...            ...%%%%%%%%%%%%%%%%%%%%%=========...                  ",
"      ...***************---...            ...%%%%%%%%%%%%%%%%%%%%%=========...                  ",
"      ...***************---...            ...%%%%%%%%%%%%%%%%%%%%%=========...                  ",
"      ...******************---...      ...%%%%%%%%%%%%@@@@@@@@@%%%%%%=========...               ",
"      ...******************---...      ...%%%%%%%%%%%%@@@@@@@@@%%%%%%=========...               ",
"      ...******************---...      ...%%%%%%%%%%%%@@@@@@@@@%%%%%%=========...               ",
"      ...******************---@@@......%%%%%%%%%%%%@@@%%%%%%%%%@@@%%%%%%======%%%...            ",
"      ...******************---@@@......%%%%%%%%%%%%@@@%%%%%%%%%@@@%%%%%%======%%%...            ",
"      ...******************---@@@......%%%%%%%%%%%%@@@%%%%%%%%%@@@%%%%%%======%%%...            ",
"      ...*********************---%%%%%%%%%%%%%%%%%%%%%%%%......%%%%%%%%%%%%%%%%%%...            ",
"      ...*********************---%%%%%%%%%%%%%%%%%%%%%%%%......%%%%%%%%%%%%%%%%%%...            ",
"      ...*********************---%%%%%%%%%%%%%%%%%%%%%%%%......%%%%%%%%%%%%%%%%%%...            ",
"      ...OOO*********************---%%%%%%%%%%%%%%%%%%...+++;;;...%%%%%%%%%%%%.........         ",
"      ...OOO*********************---%%%%%%%%%%%%%%%%%%...+++;;;...%%%%%%%%%%%%.........         ",
"      ...OOO*********************---%%%%%%%%%%%%%%%%%%...+++;;;...%%%%%%%%%%%%.........         ",
"         ...*********************---@@@@@@%%%%%%%%%%%%......+++...%%%%%%%%%...$$$&&&&&&......   ",
"         ...*********************---@@@@@@%%%%%%%%%%%%......+++...%%%%%%%%%...$$$&&&&&&......   ",
"         ...*********************---@@@@@@%%%%%%%%%%%%......+++...%%%%%%%%%...$$$&&&&&&......   ",
"         ...OOOOOO******************---@@@@@@%%%%%%%%%XXX.........%%%%%%%%%...$$$$$$$$$&&&$$$...",
"         ...OOOOOO******************---@@@@@@%%%%%%%%%XXX.........%%%%%%%%%...$$$$$$$$$&&&$$$...",
"         ...OOOOOO******************---@@@@@@%%%%%%%%%XXX.........%%%%%%%%%...$$$$$$$$$&&&$$$...",
"      ......OOOOOOOOOOOOOOO*********---@@@@@@@@@%%%%%%%%%XXX......%%%%%%%%%...$$$oooooooooooo...",
"      ......OOOOOOOOOOOOOOO*********---@@@@@@@@@%%%%%%%%%XXX......%%%%%%%%%...$$$oooooooooooo...",
"      ......OOOOOOOOOOOOOOO*********---@@@@@@@@@%%%%%%%%%XXX......%%%%%%%%%...$$$oooooooooooo...",
"   ...%%%%%%...OOOOOOOOOOOOOOOOOOOOOOOO***@@@@@@@@@@@@%%%%%%%%%%%%%%%%%%@@@...#########......   ",
"   ...%%%%%%...OOOOOOOOOOOOOOOOOOOOOOOO***@@@@@@@@@@@@%%%%%%%%%%%%%%%%%%@@@...#########......   ",
"   ...%%%%%%...OOOOOOOOOOOOOOOOOOOOOOOO***@@@@@@@@@@@@%%%%%%%%%%%%%%%%%%@@@...#########......   ",
"   ...@@@%%%...OOOOOOOOOOOOOOOOOOOOOOOOOOO***@@@@@@@@@@@@@@@@@@@@@@@@@@@@@@@@@.........         ",
"   ...@@@%%%...OOOOOOOOOOOOOOOOOOOOOOOOOOO***@@@@@@@@@@@@@@@@@@@@@@@@@@@@@@@@@.........         ",
"   ...@@@%%%...OOOOOOOOOOOOOOOOOOOOOOOOOOO***@@@@@@@@@@@@@@@@@@@@@@@@@@@@@@@@@.........         ",
"   ...***@@@@@@...OOOOOOOOOOOOOOOOOOOOOOOOOOO***@@@@@@@@@@@@@@@@@@@@@@@@@@@OOO...               ",
"   ...***@@@@@@...OOOOOOOOOOOOOOOOOOOOOOOOOOO***@@@@@@@@@@@@@@@@@@@@@@@@@@@OOO...               ",
"   ...***@@@@@@...OOOOOOOOOOOOOOOOOOOOOOOOOOO***@@@@@@@@@@@@@@@@@@@@@@@@@@@OOO...               ",
"   ...OOO******...OOOOOOOOOOOOOOOOOOOOOOOOOOOOOO***@@@@@@@@@@@@@@@@@@OOOOOO...                  ",
"   ...OOO******...OOOOOOOOOOOOOOOOOOOOOOOOOOOOOO***@@@@@@@@@@@@@@@@@@OOOOOO...                  ",
"   ...OOO******...OOOOOOOOOOOOOOOOOOOOOOOOOOOOOO***@@@@@@@@@@@@@@@@@@OOOOOO...                  ",
"      ......OOOOOO...OOOOOOOOOOOOOOOOOOOOOOOOOOOOOOOOOOOOOOOOOOOOOOOOOOO...                     ",
"      ......OOOOOO...OOOOOOOOOOOOOOOOOOOOOOOOOOOOOOOOOOOOOOOOOOOOOOOOOOO...                     ",
"      ......OOOOOO...OOOOOOOOOOOOOOOOOOOOOOOOOOOOOOOOOOOOOOOOOOOOOOOOOOO...                     ",
"            ............OOOOOOOOOOOOOOOOOOOOOOOOOOOOOOOOOOOOOOOOOOOOO...                        ",
"            ............OOOOOOOOOOOOOOOOOOOOOOOOOOOOOOOOOOOOOOOOOOOOO...                        ",
"            ............OOOOOOOOOOOOOOOOOOOOOOOOOOOOOOOOOOOOOOOOOOOOO...                        ",
"                        ......OOOOOOOOOOOOOOOOOOOOOOOOOOOOOOOOO......                           ",
"                        ......OOOOOOOOOOOOOOOOOOOOOOOOOOOOOOOOO......                           ",
"                        ......OOOOOOOOOOOOOOOOOOOOOOOOOOOOOOOOO......                           ",
"                              .................................                                 ",
"                              .................................                                 ",
"                              .................................                                 ",
"                                                                                                ",
"                                                                                                ",
"                                                                                                ",
"                                                                                                ",
"                                                                                                ",
"                                                                                                ",
"                                                                                                ",
"                                                                                                ",
"                                                                                                ",
"                                                                                                ",
"                                                                                                ",
"                                                                                                ",
"                                                                                                ",
"                                                                                                ",
"                                                                                                ",
"                                                                                                ",
"                                                                                                ",
"                                                                                                "
};
