/* XPM */
static char *_206f9dd81c04a0bff97771e2fa764faTsbu1kQwX07seAND[] = {
/* columns rows colors chars-per-pixel */
"96 96 11 1 ",
"  c None",
". c #17111A",
"X c #2A282B",
"o c #781B28",
"O c #404041",
"+ c gray32",
"@ c gray40",
"# c #9E2C3C",
"$ c #E14141",
"% c #EC8484",
"& c #FAAEAE",
/* pixels */
"                                                                                                ",
"                                                                                                ",
"                                                                                                ",
"                                                                                                ",
"                                                                                                ",
"                                                                                                ",
"                                                                                                ",
"                                                                                                ",
"                                                                                                ",
"                                                                                                ",
"                                                                                                ",
"                                                                                                ",
"                                                                                                ",
"                                                                                                ",
"                                                                                                ",
"                                                                                                ",
"                                                                                                ",
"                                                                                                ",
"                                                                                                ",
"                                                                                                ",
"                                                                                                ",
"                                                              .......                           ",
"                                                              .......                           ",
"                                                              .......                           ",
"                                                                 .......                        ",
"                                                                 .......                        ",
"                                                                 .......                        ",
"                                                          .......OOOO...                        ",
"                                                          .......OOOO...                        ",
"                                                          .......OOOO...                        ",
"                                                          .......OOOO...                        ",
"                                      ....................OOOOOOOOOOO@@@.......                 ",
"                                      ....................OOOOOOOOOOO@@@.......                 ",
"                                      ....................OOOOOOOOOOO@@@.......                 ",
"                               .......#############ooooXXXXXXXOOO+++++++@@@.......              ",
"                               .......#############ooooXXXXXXXOOO+++++++@@@.......              ",
"                               .......#############ooooXXXXXXXOOO+++++++@@@.......              ",
"                               .......#############ooooXXXXXXXOOO+++++++@@@.......              ",
"                           ....ooo####.......$$$$$$####oooXXXXOOO++++@@@...    ...              ",
"                           ....ooo####.......$$$$$$####oooXXXXOOO++++@@@...    ...              ",
"                           ....ooo####.......$$$$$$####oooXXXXOOO++++@@@...    ...              ",
"                        ...oooo###$$$$.......%%%$$$$$$$###XXXXXXX++++OOO...                     ",
"                        ...oooo###$$$$.......%%%$$$$$$$###XXXXXXX++++OOO...                     ",
"                        ...oooo###$$$$.......%%%$$$$$$$###XXXXXXX++++OOO...                     ",
"                        ...oooo###$$$$.......%%%$$$$$$$###XXXXXXX++++OOO...                     ",
"                        ...####$$$$$$$%%%%%%%&&&%%%$$$$...####oooXXXX...                        ",
"                        ...####$$$$$$$%%%%%%%&&&%%%$$$$...####oooXXXX...                        ",
"                        ...####$$$$$$$%%%%%%%&&&%%%$$$$...####oooXXXX...                        ",
"                     ...###.......%%%%$$$$$$$$$$.......$$$$$$$###oooo...                        ",
"                     ...###.......%%%%$$$$$$$$$$.......$$$$$$$###oooo...                        ",
"                     ...###.......%%%%$$$$$$$$$$.......$$$$$$$###oooo...                        ",
"                     ...###.......%%%%$$$.......$$$$$$$%%%$$$$$$$####...                        ",
"                     ...###.......%%%%$$$.......$$$$$$$%%%$$$$$$$####...                        ",
"                     ...###.......%%%%$$$.......$$$$$$$%%%$$$$$$$####...                        ",
"                     ...###.......%%%%$$$.......$$$$$$$%%%$$$$$$$####...                        ",
"                     ...###$$$$%%%$$$$$$$.......$$$&&&&$$$$$$$$$$####...                        ",
"                     ...###$$$$%%%$$$$$$$.......$$$&&&&$$$$$$$$$$####...                        ",
"                     ...###$$$$%%%$$$$$$$.......$$$&&&&$$$$$$$$$$####...                        ",
"                     ...###$$$$$$$$$$$...$$$$$$$&&&%%%%.......#######...                        ",
"                     ...###$$$$$$$$$$$...$$$$$$$&&&%%%%.......#######...                        ",
"                     ...###$$$$$$$$$$$...$$$$$$$&&&%%%%.......#######...                        ",
"                     ...###$$$$$$$$$$$...$$$$$$$&&&%%%%.......#######...                        ",
"                     ...ooo####$$$....$$$$$$$%%%%%%$$$$.......###oooo...                        ",
"                     ...ooo####$$$....$$$$$$$%%%%%%$$$$.......###oooo...                        ",
"                     ...ooo####$$$....$$$$$$$%%%%%%$$$$.......###oooo...                        ",
"                        ...####...$$$$$$$.......$$$$$$$$$$#######....                           ",
"                        ...####...$$$$$$$.......$$$$$$$$$$#######....                           ",
"                        ...####...$$$$$$$.......$$$$$$$$$$#######....                           ",
"                        ...####...$$$$$$$.......$$$$$$$$$$#######....                           ",
"                        ...####...####$$$.......$$$$$$$#######ooo....                           ",
"                        ...####...####$$$.......$$$$$$$#######ooo....                           ",
"                        ...####...####$$$.......$$$$$$$#######ooo....                           ",
"                        .......###########################oooo...                               ",
"                        .......###########################oooo...                               ",
"                        .......###########################oooo...                               ",
"                           .......#################oooo.......                                  ",
"                           .......#################oooo.......                                  ",
"                           .......#################oooo.......                                  ",
"                           .......#################oooo.......                                  ",
"                                  .....................                                         ",
"                                  .....................                                         ",
"                                  .....................                                         ",
"                                                                                                ",
"                                                                                                ",
"                                                                                                ",
"                                                                                                ",
"                                                                                                ",
"                                                                                                ",
"                                                                                                ",
"                                                                                                ",
"                                                                                                ",
"                                                                                                ",
"                                                                                                ",
"                                                                                                ",
"                                                                                                ",
"                                                                                                "
};
