/* XPM */
static char *_2151d014b1749deaf2189efa218413fxCoAR9Uk7rQiQwHf[] = {
/* columns rows colors chars-per-pixel */
"93 96 10 1 ",
"  c None",
". c black",
"X c gray4",
"o c #151515",
"O c gray14",
"+ c #2F2F2F",
"@ c #8D1400",
"# c #E32607",
"$ c #F95237",
"% c #FE8D56",
/* pixels */
"                                                                                             ",
"                                                                                             ",
"                                                                                             ",
"                                                                                             ",
"                                                                                             ",
"                                                                                             ",
"                                                                                             ",
"                                                                                             ",
"                                                                                             ",
"                                                                                             ",
"                                                                                             ",
"                                                                                             ",
"                                                                                             ",
"                                                                                             ",
"                                                                                             ",
"                                                                                             ",
"                                                                                             ",
"                                                                                             ",
"                                                                                             ",
"                                                                                             ",
"                                                                                             ",
"                                                                                             ",
"                                                                                             ",
"                                                                                             ",
"                                                                                             ",
"                                                                                             ",
"                                                                                             ",
"                                                                                             ",
"                                                                                             ",
"                                                                                             ",
"                                                                                             ",
"                                                                                             ",
"                                                                                             ",
"                                                                                             ",
"                                                                                             ",
"                                                                                             ",
"                                                                                             ",
"                                                                                             ",
"                                                                                             ",
"                                                                                             ",
"                                                                                             ",
"                                                                                             ",
"                                                                                             ",
"                                                                                             ",
"                                                                                             ",
"                                                                  ...            ...         ",
"                                                                  ...            ...         ",
"                                                                  ...            ...         ",
"                                                                  ...            ...         ",
"                                                                  ...            ...         ",
"                                                                  ...            ...         ",
"                                                                     ...         ...         ",
"                                                                     ...         ...         ",
"                                                                     ...         ...         ",
"                                                ..................   ...         ...         ",
"                                                ..................   ...         ...         ",
"                                                ..................   ...         ...         ",
"                                          ......%%%%%%++++++###%%%......         ...         ",
"                                          ......%%%%%%++++++###%%%......         ...         ",
"                                          ......%%%%%%++++++###%%%......         ...         ",
"               ...........................+++++++++$$$OOOOOO+++###$$$XXX.........            ",
"               ...........................+++++++++$$$OOOOOO+++###$$$XXX.........            ",
"               ...........................+++++++++$$$OOOOOO+++###$$$XXX.........            ",
"         ......++++++%%%+++++++++%%%++++++%%%OOOOOO###$$$OOOOOO###OOOXXX+++%%%XXX...         ",
"         ......++++++%%%+++++++++%%%++++++%%%OOOOOO###$$$OOOOOO###OOOXXX+++%%%XXX...         ",
"         ......++++++%%%+++++++++%%%++++++%%%OOOOOO###$$$OOOOOO###OOOXXX+++%%%XXX...         ",
"      ...%%%OOOOOO+++$$$OOOOOO+++$$$OOOOOO$$$OOOOOOOOO######OOO###oooOOOXXX+++XXX%%%...      ",
"      ...%%%OOOOOO+++$$$OOOOOO+++$$$OOOOOO$$$OOOOOOOOO######OOO###oooOOOXXX+++XXX%%%...      ",
"      ...%%%OOOOOO+++$$$OOOOOO+++$$$OOOOOO$$$OOOOOOOOO######OOO###oooOOOXXX+++XXX%%%...      ",
"   ...$$$OOOOOOOOO###$$$OOOOOO###$$$OOOOOO$$$OOOooo###@@@@@@ooo###oooOOOOOOOOOOOOooo...      ",
"   ...$$$OOOOOOOOO###$$$OOOOOO###$$$OOOOOO$$$OOOooo###@@@@@@ooo###oooOOOOOOOOOOOOooo...      ",
"   ...$$$OOOOOOOOO###$$$OOOOOO###$$$OOOOOO$$$OOOooo###@@@@@@ooo###oooOOOOOOOOOOOOooo...      ",
"   ...###OOOOOO######OOOOOO######OOOOOOOOO###$$$ooo@@@...@@@...@@@###oooOOOOOOOOOooo...      ",
"   ...###OOOOOO######OOOOOO######OOOOOOOOO###$$$ooo@@@...@@@...@@@###oooOOOOOOOOOooo...      ",
"   ...###OOOOOO######OOOOOO######OOOOOOOOO###$$$ooo@@@...@@@...@@@###oooOOOOOOOOOooo...      ",
"   ...@@@oooooo###@@@oooooo###@@@###oooooo@@@###XXX...   ...   ...@@@oooooooooooo@@@...      ",
"   ...@@@oooooo###@@@oooooo###@@@###oooooo@@@###XXX...   ...   ...@@@oooooooooooo@@@...      ",
"   ...@@@oooooo###@@@oooooo###@@@###oooooo@@@###XXX...   ...   ...@@@oooooooooooo@@@...      ",
"      ...XXXXXX@@@...@@@XXX@@@...@@@XXXXXX...@@@...   ...   ...   ...XXXXXXXXXXXX...         ",
"      ...XXXXXX@@@...@@@XXX@@@...@@@XXXXXX...@@@...   ...   ...   ...XXXXXXXXXXXX...         ",
"      ...XXXXXX@@@...@@@XXX@@@...@@@XXXXXX...@@@...   ...   ...   ...XXXXXXXXXXXX...         ",
"         ...XXX...   ...XXX...   ...XXX...   ...   ...               ............            ",
"         ...XXX...   ...XXX...   ...XXX...   ...   ...               ............            ",
"         ...XXX...   ...XXX...   ...XXX...   ...   ...               ............            ",
"            ...   ...   ...   ...   ...   ...                                                ",
"            ...   ...   ...   ...   ...   ...                                                ",
"            ...   ...   ...   ...   ...   ...                                                ",
"                                                                                             ",
"                                                                                             ",
"                                                                                             ",
"                                                                                             ",
"                                                                                             ",
"                                                                                             ",
"                                                                                             ",
"                                                                                             ",
"                                                                                             "
};
