/* XPM */
static char *d9796e148a6c4521efcb4f4bf5399bcf77BUjh5bZEOTNLsQ[] = {
/* columns rows colors chars-per-pixel */
"96 96 4 1 ",
"  c None",
". c #07000E",
"X c #3D063D",
"o c #7F184B",
/* pixels */
"                                                                                                ",
"                                                                                                ",
"                                                                                                ",
"                                                                                                ",
"                                                                                                ",
"                                                                                                ",
"                                                                                                ",
"                                                                                                ",
"                                                                                                ",
"                                                                                                ",
"                                                                                                ",
"                            ..................                                                  ",
"                            ..................                                                  ",
"                            ..................                                                  ",
"                         ...oooooooooooooooooo....                                              ",
"                         ...oooooooooooooooooo....                                              ",
"                         ...oooooooooooooooooo....                                              ",
"                         ...oooooooooooooooooo....                                              ",
"                     ....ooooooooooooooooooooooooo...                                           ",
"                     ....ooooooooooooooooooooooooo...                                           ",
"                     ....ooooooooooooooooooooooooo...                                           ",
"                  ...oooo...oooooooooooooooooooooo...                                           ",
"                  ...oooo...oooooooooooooooooooooo...                                           ",
"                  ...oooo...oooooooooooooooooooooo...                                           ",
"                  ...oooo...oooooooooooooooooooooo...                                           ",
"                  ...oooo...oooooooooooooooooooooo...                                           ",
"                  ...oooo...oooooooooooooooooooooo...                                           ",
"                  ...oooo...oooooooooooooooooooooo...                                           ",
"                  ...ooooooooooooooooooooooooooooo...                                           ",
"                  ...ooooooooooooooooooooooooooooo...                                           ",
"                  ...ooooooooooooooooooooooooooooo...                                           ",
"                  ...ooooooooooooooooooooooooooooo...                                           ",
"                     .......XXXXooooooooooooooXXXX...                                           ",
"                     .......XXXXooooooooooooooXXXX...                                           ",
"                     .......XXXXooooooooooooooXXXX...                                           ",
"                     .......XXXXooooooooooooooXXXX...                                           ",
"                            ....ooooooooooooooXXXX...                                           ",
"                            ....ooooooooooooooXXXX...                                           ",
"                            ....ooooooooooooooXXXX...                                           ",
"                         ...oooooooooooooooXXX....                                              ",
"                         ...oooooooooooooooXXX....                                              ",
"                         ...oooooooooooooooXXX....                                              ",
"                         ...oooooooooooooooXXX....                                              ",
"                         ...oooooooooooooooXXX..................                                ",
"                         ...oooooooooooooooXXX..................                                ",
"                         ...oooooooooooooooXXX..................                                ",
"                     ....ooooooooooooooXXXX...oooooooooooooooooo.......                         ",
"                     ....ooooooooooooooXXXX...oooooooooooooooooo.......                         ",
"                     ....ooooooooooooooXXXX...oooooooooooooooooo.......                         ",
"                     ....ooooooooooooooXXXX...oooooooooooooooooo.......                         ",
"                     ....ooooooooooooooXXXX..........ooooooooooooooo...                         ",
"                     ....ooooooooooooooXXXX..........ooooooooooooooo...                         ",
"                     ....ooooooooooooooXXXX..........ooooooooooooooo...                         ",
"              .......XXXXoooooooooooooooooooooooooooooooooooooooooooXXX.......                  ",
"              .......XXXXoooooooooooooooooooooooooooooooooooooooooooXXX.......                  ",
"              .......XXXXoooooooooooooooooooooooooooooooooooooooooooXXX.......                  ",
"              .......XXXXoooooooooooooooooooooooooooooooooooooooooooXXX.......                  ",
"           ...ooooooo....XXXooooooooooooooooooooooooooooooooooooXXXX...ooooooo....              ",
"           ...ooooooo....XXXooooooooooooooooooooooooooooooooooooXXXX...ooooooo....              ",
"           ...ooooooo....XXXooooooooooooooooooooooooooooooooooooXXXX...ooooooo....              ",
"       ....oooooooooo.......XXXXooooooooooooooooooooooooooooXXXX.......ooooooo...........       ",
"       ....oooooooooo.......XXXXooooooooooooooooooooooooooooXXXX.......ooooooo...........       ",
"       ....oooooooooo.......XXXXooooooooooooooooooooooooooooXXXX.......ooooooo...........       ",
"       ....oooooooooo.......XXXXooooooooooooooooooooooooooooXXXX.......ooooooo...........       ",
"       ....ooooooooooooooooo........XXXXXXXXXXXXXXXXXXXXX.....................ooooXXX....       ",
"       ....ooooooooooooooooo........XXXXXXXXXXXXXXXXXXXXX.....................ooooXXX....       ",
"       ....ooooooooooooooooo........XXXXXXXXXXXXXXXXXXXXX.....................ooooXXX....       ",
"       ....ooooooooooooooooo........XXXXXXXXXXXXXXXXXXXXX.....................ooooXXX....       ",
"       ....XXXoooooooooooooooooooooo.....................oooooooooooooooooooooXXXX...           ",
"       ....XXXoooooooooooooooooooooo.....................oooooooooooooooooooooXXXX...           ",
"       ....XXXoooooooooooooooooooooo.....................oooooooooooooooooooooXXXX...           ",
"           ...XXXXoooooooooooooooooooooooooooooooooooooooooooooooooooooooooXXX....              ",
"           ...XXXXoooooooooooooooooooooooooooooooooooooooooooooooooooooooooXXX....              ",
"           ...XXXXoooooooooooooooooooooooooooooooooooooooooooooooooooooooooXXX....              ",
"           ...XXXXoooooooooooooooooooooooooooooooooooooooooooooooooooooooooXXX....              ",
"              ....XXXoooooooooooooooooooooooooooooooooooooooooooooooXXX.......                  ",
"              ....XXXoooooooooooooooooooooooooooooooooooooooooooooooXXX.......                  ",
"              ....XXXoooooooooooooooooooooooooooooooooooooooooooooooXXX.......                  ",
"                  ..........XXXXXXXXoooooooooooooooooooooXXXXXXX.......                         ",
"                  ..........XXXXXXXXoooooooooooooooooooooXXXXXXX.......                         ",
"                  ..........XXXXXXXXoooooooooooooooooooooXXXXXXX.......                         ",
"                  ..........XXXXXXXXoooooooooooooooooooooXXXXXXX.......                         ",
"                            ....................................                                ",
"                            ....................................                                ",
"                            ....................................                                ",
"                                                                                                ",
"                                                                                                ",
"                                                                                                ",
"                                                                                                ",
"                                                                                                ",
"                                                                                                ",
"                                                                                                ",
"                                                                                                ",
"                                                                                                ",
"                                                                                                ",
"                                                                                                "
};
