/* XPM */
static char *_17fffcadf1f4756c3cd14f9e2933aa7D4Pa5N0eUt01gFpc[] = {
/* columns rows colors chars-per-pixel */
"96 96 5 1 ",
"  c None",
". c #07000E",
"X c #3D063D",
"o c #7F184B",
"O c #FFEB8C",
/* pixels */
"                                                                                                ",
"                                                                                                ",
"                                                                                                ",
"                                                                                                ",
"                                                                                                ",
"                                                                                                ",
"                                                                                                ",
"                                                                                                ",
"                                                                                                ",
"                                                                                                ",
"                                                                                                ",
"                                                                                                ",
"                                                                                                ",
"                                                                                                ",
"                                                   ..................                           ",
"                                                   ..................                           ",
"                                                   ..................                           ",
"                                                ...oooooooooooooooooo...                        ",
"                                                ...oooooooooooooooooo...                        ",
"                                                ...oooooooooooooooooo...                        ",
"                                                ...oooooooooooooooooo...                        ",
"                                             ...oooooooooooooooooooooooo...                     ",
"                                             ...oooooooooooooooooooooooo...                     ",
"                                             ...oooooooooooooooooooooooo...                     ",
"                                             ...ooooooo...ooooooooooooooooo....                 ",
"                                             ...ooooooo...ooooooooooooooooo....                 ",
"                                             ...ooooooo...ooooooooooooooooo....                 ",
"                                             ...ooooooo...ooooooooooooooooo....                 ",
"                                             ...ooooooo...ooooooooooooooooo....                 ",
"                                             ...ooooooo...ooooooooooooooooo....                 ",
"                                             ...ooooooo...ooooooooooooooooo....                 ",
"                                             ...oooooooooooooooooooooooo...                     ",
"                                             ...oooooooooooooooooooooooo...                     ",
"                                             ...oooooooooooooooooooooooo...                     ",
"                                             ...oooooooooooooo..........                        ",
"                                             ...oooooooooooooo..........                        ",
"                                             ...oooooooooooooo..........                        ",
"                                             ...oooooooooooooo..........                        ",
"                                             ...XXXoooooooooooOOO....                           ",
"                                             ...XXXoooooooooooOOO....                           ",
"                                             ...XXXoooooooooooOOO....                           ",
"                                                ...oooooooooooOOOOOOO...                        ",
"                                                ...oooooooooooOOOOOOO...                        ",
"                                                ...oooooooooooOOOOOOO...                        ",
"                                                ...oooooooooooOOOOOOO...                        ",
"                                  .................XXXXooooooooooOOOO...                        ",
"                                  .................XXXXooooooooooOOOO...                        ",
"                                  .................XXXXooooooooooOOOO...                        ",
"                           .......ooooooooooooooooo....ooooooooooOOOOOOO...                     ",
"                           .......ooooooooooooooooo....ooooooooooOOOOOOO...                     ",
"                           .......ooooooooooooooooo....ooooooooooOOOOOOO...                     ",
"                           ....oooooooooooooo.............oooooooooooOOO...                     ",
"                           ....oooooooooooooo.............oooooooooooOOO...                     ",
"                           ....oooooooooooooo.............oooooooooooOOO...                     ",
"                           ....oooooooooooooo.............oooooooooooOOO...                     ",
"                     ......XXXXooooooooooooooooooooooooooooooooooooooOOOXXX.......              ",
"                     ......XXXXooooooooooooooooooooooooooooooooooooooOOOXXX.......              ",
"                     ......XXXXooooooooooooooooooooooooooooooooooooooOOOXXX.......              ",
"                 ....oooooo....XXXoooooooooooooooooooooooooooooooooooXXX...ooooooo....          ",
"                 ....oooooo....XXXoooooooooooooooooooooooooooooooooooXXX...ooooooo....          ",
"                 ....oooooo....XXXoooooooooooooooooooooooooooooooooooXXX...ooooooo....          ",
"                 ....oooooo....XXXoooooooooooooooooooooooooooooooooooXXX...ooooooo....          ",
"          .......oooooooooo.......XXXXoooooooooooooooooooooooooooXXXX...oooooooooooooo...       ",
"          .......oooooooooo.......XXXXoooooooooooooooooooooooooooXXXX...oooooooooooooo...       ",
"          .......oooooooooo.......XXXXoooooooooooooooooooooooooooXXXX...oooooooooooooo...       ",
"       ...oooo...ooooooooooooooooo.......XXXXXXXXXXXXXXXXXXXXX.......ooooooooooooooooo...       ",
"       ...oooo...ooooooooooooooooo.......XXXXXXXXXXXXXXXXXXXXX.......ooooooooooooooooo...       ",
"       ...oooo...ooooooooooooooooo.......XXXXXXXXXXXXXXXXXXXXX.......ooooooooooooooooo...       ",
"       ...oooo...ooooooooooooooooo.......XXXXXXXXXXXXXXXXXXXXX.......ooooooooooooooooo...       ",
"          .......XXXXoooooooooooooooooooo.....................ooooooooooooooooooooXXXX...       ",
"          .......XXXXoooooooooooooooooooo.....................ooooooooooooooooooooXXXX...       ",
"          .......XXXXoooooooooooooooooooo.....................ooooooooooooooooooooXXXX...       ",
"                 ....XXXoooooooooooooooooooooooooooooooooooooooooooooooooooooooXXX....          ",
"                 ....XXXoooooooooooooooooooooooooooooooooooooooooooooooooooooooXXX....          ",
"                 ....XXXoooooooooooooooooooooooooooooooooooooooooooooooooooooooXXX....          ",
"                     ...XXXooooooooooooooooooooooooooooooooooooooooooooooooXXXX...              ",
"                     ...XXXooooooooooooooooooooooooooooooooooooooooooooooooXXXX...              ",
"                     ...XXXooooooooooooooooooooooooooooooooooooooooooooooooXXXX...              ",
"                     ...XXXooooooooooooooooooooooooooooooooooooooooooooooooXXXX...              ",
"                        ..........XXXXXXXoooooooooooooooooooooXXXXXXX..........                 ",
"                        ..........XXXXXXXoooooooooooooooooooooXXXXXXX..........                 ",
"                        ..........XXXXXXXoooooooooooooooooooooXXXXXXX..........                 ",
"                                  ...................................                           ",
"                                  ...................................                           ",
"                                  ...................................                           ",
"                                  ...................................                           ",
"                                                                                                ",
"                                                                                                ",
"                                                                                                ",
"                                                                                                ",
"                                                                                                ",
"                                                                                                ",
"                                                                                                ",
"                                                                                                ",
"                                                                                                ",
"                                                                                                "
};
