/* XPM */
static char *dummy[]={
"96 96 11 1",
". c None",
"d c #1d3f2e",
"b c #2d5938",
"# c #337544",
"e c #48293e",
"a c #56ab49",
"f c #624138",
"g c #866961",
"h c #b59e74",
"c c #bae071",
"i c #f0eaaf",
"................................................................................................",
"................................................................................................",
"................................................................................................",
".............................###aaaaaa#########bbb..............................................",
".............................###aaaaaa#########bbb..............................................",
".............................###aaaaaa#########bbb..............................................",
"........................bb###aaacccccccccaaa###aaa###bbbbbb.....................................",
"........................bb###aaacccccccccaaa###aaa###bbbbbb.....................................",
"........................bb###aaacccccccccaaa###aaa###bbbbbb.....................................",
"........................bb###aaa###cccaaacccaaa###aaa#########bbbbbb............................",
"........................bb###aaa###cccaaacccaaa###aaa#########bbbbbb............................",
"........................bb###aaa###cccaaacccaaa###aaa#########bbbbbb............................",
"..................aaa#####bbb######aaaaaa###aaa#########aaaaaa###bbbddd.........................",
"..................aaa#####bbb######aaaaaa###aaa#########aaaaaa###bbbddd.........................",
"..................aaa#####bbb######aaaaaa###aaa#########aaaaaa###bbbddd.........................",
"...............aaaaaaaaa#####bbbdddbbb#########aaaaaaaaacccaaaccc###ddd.........................",
"...............aaaaaaaaa#####bbbdddbbb#########aaaaaaaaacccaaaccc###ddd.........................",
"...............aaaaaaaaa#####bbbdddbbb#########aaaaaaaaacccaaaccc###ddd.........................",
"............######aaacccaaaaa###ddd######bbb###aaacccccccccaaa###dddddd.bbb.....................",
"............######aaacccaaaaa###ddd######bbb###aaacccccccccaaa###dddddd.bbb.....................",
"............######aaacccaaaaa###ddd######bbb###aaacccccccccaaa###dddddd.bbb.....................",
"............bbbaaaccccccaa###aaabbbaaa###aaa###cccaaacccaaa###bbbdddaaa#######bbb...............",
"............bbbaaaccccccaa###aaabbbaaa###aaa###cccaaacccaaa###bbbdddaaa#######bbb...............",
"............bbbaaaccccccaa###aaabbbaaa###aaa###cccaaacccaaa###bbbdddaaa#######bbb...............",
"............ddd###aaa###ccaaa#########ccccccaaa######aaa###bbb###aaaccccaaaaaabbbbbb............",
"............ddd###aaa###ccaaa#########ccccccaaa######aaa###bbb###aaaccccaaaaaabbbbbb............",
"............bbbdddbbb###########bbbaaacccaaa###aaa######bbb###bbb###aaaaccc######ddd............",
"............bbbdddbbb###########bbbaaacccaaa###aaa######bbb###bbb###aaaaccc######ddd............",
"............bbbdddbbb###########bbbaaacccaaa###aaa######bbb###bbb###aaaaccc######ddd............",
"......###aaaaaa###bbbbbb##bbbaaa###bbb###aaabbb###bbbbbb###bbbaaaaaa####aaabbbbbbddd............",
"......###aaaaaa###bbbbbb##bbbaaa###bbb###aaabbb###bbbbbb###bbbaaaaaa####aaabbbbbbddd............",
"......###aaaaaa###bbbbbb##bbbaaa###bbb###aaabbb###bbbbbb###bbbaaaaaa####aaabbbbbbddd............",
"...###aaa###aaa###aaa#####aaa######aaaaaa######bbbdddddd###aaacccaaaaaaacccaaa###bbbbbb.........",
"...###aaa###aaa###aaa#####aaa######aaaaaa######bbbdddddd###aaacccaaaaaaacccaaa###bbbbbb.........",
"...###aaa###aaa###aaa#####aaa######aaaaaa######bbbdddddd###aaacccaaaaaaacccaaa###bbbbbb.........",
"...bbbbbbaaacccccc###aaa#####cccaaaccccccaaaccc######bbbaaaccccccaaaccc#aaacccaaa######.........",
"...bbbbbbaaacccccc###aaa#####cccaaaccccccaaaccc######bbbaaaccccccaaaccc#aaacccaaa######.........",
"...bbbbbbaaacccccc###aaa#####cccaaaccccccaaaccc######bbbaaaccccccaaaccc#aaacccaaa######.........",
"...bbb###aaa###aaaccc###bbaaaaaacccaaaccccccaaaaaabbb#########aaacccccca#########bbb###.........",
"...bbb###aaa###aaaccc###bbaaaaaacccaaaccccccaaaaaabbb#########aaacccccca#########bbb###.........",
"...bbb###aaa###aaaccc###bbaaaaaacccaaaccccccaaaaaabbb#########aaacccccca#########bbb###.........",
"...bbbbbb###aaa###########aaa###aaaaaaaaaaaaaaa#########aaaaaaaaaaaaaaa####bbb######bbbddd......",
"...bbbbbb###aaa###########aaa###aaaaaaaaaaaaaaa#########aaaaaaaaaaaaaaa####bbb######bbbddd......",
"...bbbbbb###aaa###########aaa###aaaaaaaaaaaaaaa#########aaaaaaaaaaaaaaa####bbb######bbbddd......",
"......dddbbbbbb######bbbbb######aaa###ccc#########bbbaaaaaaccc###ccc###abbb###bbbbbbbbbddd......",
"......dddbbbbbb######bbbbb######aaa###ccc#########bbbaaaaaaccc###ccc###abbb###bbbbbbbbbddd......",
"......dddbbbbbb######bbbbb######aaa###ccc#########bbbaaaaaaccc###ccc###abbb###bbbbbbbbbddd......",
"......bbbbbb###bbb######ddbbb###bbb############dddbbb###cccaaa#############bbbddddddddd.........",
"......bbbbbb###bbb######ddbbb###bbb############dddbbb###cccaaa#############bbbddddddddd.........",
"......bbbbbb###bbb######ddbbb###bbb############dddbbb###cccaaa#############bbbddddddddd.........",
"......ddddddddddddbbbbbb##dddddd###bbb###bbbddd#########bbb######bbbbbb#bbbdddeee...............",
"......ddddddddddddbbbbbb##dddddd###bbb###bbbddd#########bbb######bbbbbb#bbbdddeee...............",
"......ddddddddddddbbbbbb##dddddd###bbb###bbbddd#########bbb######bbbbbb#bbbdddeee...............",
"............dddbbbbbbbbbbbbbbbbbbbbbbbbbbddd###bbbbbb#########dddbbb###bdddbbb..................",
"............dddbbbbbbbbbbbbbbbbbbbbbbbbbbddd###bbbbbb#########dddbbb###bdddbbb..................",
"............dddbbbbbbbbbbbbbbbbbbbbbbbbbbddd###bbbbbb#########dddbbb###bdddbbb..................",
"...............dddddd###bbbbbdddbbb###bbbdddbbbbbbbbbbbbbbbddddddbbbbbb#bbb.....................",
"...............dddddd###bbbbbdddbbb###bbbdddbbbbbbbbbbbbbbbddddddbbbbbb#bbb.....................",
"...............dddddd###bbbbbdddbbb###bbbdddbbbbbbbbbbbbbbbddddddbbbbbb#bbb.....................",
".....................bbb##ddd...dddbbbdddeeedddbbb###bbbdddeeeaaaddddddbddd.....................",
".....................bbb##ddd...dddbbbdddeeedddbbb###bbbdddeeeaaaddddddbddd.....................",
".....................bbb##ddd...dddbbbdddeeedddbbb###bbbdddeeeaaaddddddbddd.....................",
".....................dddbb......ddddddeeefffdddddd###bbbdddeeeeeeaaaaaadddd.....................",
".....................dddbb......ddddddeeefffdddddd###bbbdddeeeeeeaaaaaadddd.....................",
".....................dddbb......ddddddeeefffdddddd###bbbdddeeeeeeaaaaaadddd.....................",
"........................dd.........eeeffffffgggfffbbbbbbeeeffffffeeeeee.........................",
"........................dd.........eeeffffffgggfffbbbbbbeeeffffffeeeeee.........................",
"........................dd.........eeeffffffgggfffbbbbbbeeeffffffeeeeee.........................",
"................................fffhhhgggfffhhhfffggghhhffffffeee...............................",
"................................fffhhhgggfffhhhfffggghhhffffffeee...............................",
"................................fffhhhgggfffhhhfffggghhhffffffeee...............................",
"..........................ffffffgggggghhhgggiiigggggghhhgggfffgggeeeeee.........................",
".....................ggghhhhhggggggfffiiigggggggggfffgggiiiffffffgggfffeeee.....................",
".....................ggghhhhhggggggfffiiigggggggggfffgggiiiffffffgggfffeeee.....................",
".....................ggghhhhhggggggfffiiigggggggggfffgggiiiffffffgggfffeeee.....................",
"..................ggggggggffffffeeeeeeiiiggghhhgggffffffhhhgggeeeffffffffffeee..................",
"..................ggggggggffffffeeeeeeiiiggghhhgggffffffhhhgggeeeffffffffffeee..................",
"..................ggggggggffffffeeeeeeiiiggghhhgggffffffhhhgggeeeffffffffffeee..................",
"...................................ggghhheeefffgggeeefffggghhhfffeee....ffffff..................",
"...................................ggghhheeefffgggeeefffggghhhfffeee....ffffff..................",
"...................................ggghhheeefffgggeeefffggghhhfffeee....ffffff..................",
"................................ggghhheee......fffeeefffffffffgggeeeeee.........................",
"................................ggghhheee......fffeeefffffffffgggeeeeee.........................",
"................................ggghhheee......fffeeefffffffffgggeeeeee.........................",
".............................ggggggfff.........fffeee.........ffffffeee.........................",
".............................ggggggfff.........fffeee.........ffffffeee.........................",
".............................ggggggfff.........fffeee.........ffffffeee.........................",
".............................ggg...............fff..................fff.........................",
".............................ggg...............fff..................fff.........................",
".............................ggg...............fff..................fff.........................",
"................................................................................................",
"................................................................................................",
"................................................................................................",
"................................................................................................",
"................................................................................................",
"................................................................................................"};
