/* XPM */
static char *a05dbfc529a84b63f030d980ff4a2065IyhqeiuTmRlPtRGM[] = {
/* columns rows colors chars-per-pixel */
"93 96 6 1 ",
"  c None",
". c #17111A",
"X c #8A4F75",
"o c #C87C8C",
"O c #DE938F",
"+ c #EEAC9A",
/* pixels */
"                                                                                             ",
"                                                                                             ",
"                                                                                             ",
"                                                                                             ",
"                                                                                             ",
"                                                                                             ",
"                                                                                             ",
"                                                                                             ",
"                                                                                             ",
"                                                                  ............               ",
"                                                                  ............               ",
"                                                                  ............               ",
"                                                               ...+++++++++...               ",
"                                                               ...+++++++++...               ",
"                                                               ...+++++++++...               ",
"                                                            ...OOO+++ooo...                  ",
"                                                            ...OOO+++ooo...                  ",
"                                                            ...OOO+++ooo...                  ",
"               ...                                          ...+++ooo...                     ",
"               ...                                          ...+++ooo...                     ",
"               ...                                          ...+++ooo...                     ",
"            ...OOO...                                    ...OOO+++ooo...                     ",
"            ...OOO...                                    ...OOO+++ooo...                     ",
"            ...OOO...                                    ...OOO+++ooo...                     ",
"            ...+++...                                    ...+++ooo...                        ",
"            ...+++...                                    ...+++ooo...                        ",
"            ...+++...                                    ...+++ooo...                        ",
"            ...XXXOOO...                              ...OOO+++XXX...                        ",
"            ...XXXOOO...                              ...OOO+++XXX...                        ",
"            ...XXXOOO...                              ...OOO+++XXX...                        ",
"               ...ooo+++......                  ......++++++ooo...            ............   ",
"               ...ooo+++......                  ......++++++ooo...            ............   ",
"               ...ooo+++......                  ......++++++ooo...            ............   ",
"               ...XXX+++OOO+++...         ......+++OOO+++oooXXX...         ...OOO++++++...   ",
"               ...XXX+++OOO+++...         ......+++OOO+++oooXXX...         ...OOO++++++...   ",
"               ...XXX+++OOO+++...         ......+++OOO+++oooXXX...         ...OOO++++++...   ",
"         ...      ...oooXXX+++OOO.........oooOOO++++++oooXXX...         ...+++oooooo...      ",
"         ...      ...oooXXX+++OOO.........oooOOO++++++oooXXX...         ...+++oooooo...      ",
"         ...      ...oooXXX+++OOO.........oooOOO++++++oooXXX...         ...+++oooooo...      ",
"      ...+++...      ......oooXXXoooXXXoooXXXoooXXXooo......         ...OOOoooXXX...         ",
"      ...+++...      ......oooXXXoooXXXoooXXXoooXXXooo......         ...OOOoooXXX...         ",
"      ...+++...      ......oooXXXoooXXXoooXXXoooXXXooo......         ...OOOoooXXX...         ",
"      ...oooOOO...         ......XXXXXXXXXXXX.........            ...+++OOOXXX...            ",
"      ...oooOOO...         ......XXXXXXXXXXXX.........            ...+++OOOXXX...            ",
"      ...oooOOO...         ......XXXXXXXXXXXX.........            ...+++OOOXXX...            ",
"         ...+++...               ............                     ...OOOooo...               ",
"         ...+++...               ............                     ...OOOooo...               ",
"         ...+++...               ............                     ...OOOooo...               ",
"         ...XXX+++...                                          ...+++OOOXXX...               ",
"         ...XXX+++...                                          ...+++OOOXXX...               ",
"         ...XXX+++...                                          ...+++OOOXXX...               ",
"            ...+++...                                          ...OOOooo...                  ",
"            ...+++...                                          ...OOOooo...                  ",
"            ...+++...                                          ...OOOooo...                  ",
"            ...XXX+++...                                       ...OOOXXX...                  ",
"            ...XXX+++...                                       ...OOOXXX...                  ",
"            ...XXX+++...                                       ...OOOXXX...                  ",
"               ...ooo+++...                                    ...oooXXX...                  ",
"               ...ooo+++...                                    ...oooXXX...                  ",
"               ...ooo+++...                                    ...oooXXX...                  ",
"                  ...XXXOOO...                                 ...oooXXX...                  ",
"                  ...XXXOOO...                                 ...oooXXX...                  ",
"                  ...XXXOOO...                                 ...oooXXX...                  ",
"                     ...oooOOO......         ............      ...oooXXX...                  ",
"                     ...oooOOO......         ............      ...oooXXX...                  ",
"                     ...oooOOO......         ............      ...oooXXX...                  ",
"                        ...XXX++++++.........+++++++++...      ...oooXXX...                  ",
"                        ...XXX++++++.........+++++++++...      ...oooXXX...                  ",
"                        ...XXX++++++.........+++++++++...      ...oooXXX...                  ",
"                           ...ooooooooo++++++OOOOOO...         ...OOO...                     ",
"                           ...ooooooooo++++++OOOOOO...         ...OOO...                     ",
"                           ...ooooooooo++++++OOOOOO...         ...OOO...                     ",
"                              ...XXXXXXXXXoooooo...         ...+++ooo...                     ",
"                              ...XXXXXXXXXoooooo...         ...+++ooo...                     ",
"                              ...XXXXXXXXXoooooo...         ...+++ooo...                     ",
"                                 ...............         ...OOOooo...                        ",
"                                 ...............         ...OOOooo...                        ",
"                                 ...............         ...OOOooo...                        ",
"                                                            ......                           ",
"                                                            ......                           ",
"                                                            ......                           ",
"                                                                                             ",
"                                                                                             ",
"                                                                                             ",
"                                                                                             ",
"                                                                                             ",
"                                                                                             ",
"                                                                                             ",
"                                                                                             ",
"                                                                                             ",
"                                                                                             ",
"                                                                                             ",
"                                                                                             ",
"                                                                                             ",
"                                                                                             ",
"                                                                                             "
};
